<?xml version="1.0" encoding="UTF-8" standalone="no"?>
<!DOCTYPE svg PUBLIC "-//W3C//DTD SVG 1.1//EN" "http://www.w3.org/Graphics/SVG/1.1/DTD/svg11.dtd">
<svg xmlns="http://www.w3.org/2000/svg" version="1.1" viewBox="0.00 0.00 300.00 400.00">
<g stroke-width="2.30" fill="#000" stroke-linecap="butt">
<path stroke="#4d4d4d" vector-effect="non-scaling-stroke" d="
  M 246.00 386.94
  Q 244.93 386.87 244.70 388.34"
/>
<path stroke="#686969" vector-effect="non-scaling-stroke" d="
  M 149.99 165.96
  Q 150.13 165.06 149.73 164.48
  A 0.41 0.41 0.0 0 0 148.99 164.79
  Q 149.10 165.40 149.51 165.96"
/>
<path stroke="#7f7f7f" vector-effect="non-scaling-stroke" d="
  M 84.41 15.48
  Q 84.76 15.81 84.69 16.01
  Q 82.94 21.09 84.33 26.49
  A 0.84 0.84 0.0 0 0 84.87 27.08
  L 100.19 32.47
  Q 100.76 32.67 100.85 32.08
  L 102.36 22.42
  Q 102.42 22.01 102.04 21.85
  L 84.79 14.70"
/>
<path stroke="#7f7f7f" vector-effect="non-scaling-stroke" d="
  M 201.08 9.69
  C 195.03 9.28 188.15 10.49 182.97 10.54
  C 169.85 10.67 156.15 11.27 143.67 11.03
  Q 124.42 10.67 105.18 9.89
  C 100.59 9.71 95.27 9.96 90.26 9.70
  Q 89.75 9.67 89.83 10.17
  Q 89.88 10.47 90.32 10.51
  C 130.26 13.86 169.37 13.01 209.32 10.90
  Q 209.64 10.88 209.73 10.55
  Q 209.87 10.07 209.37 10.06
  Q 205.22 9.98 201.08 9.69"
/>
<path stroke="#7f7f7f" vector-effect="non-scaling-stroke" d="
  M 212.47 11.82
  A 0.74 0.74 0.0 0 1 212.63 13.24
  Q 198.74 18.84 183.92 21.18
  A 0.38 0.37 -8.6 0 0 183.60 21.60
  L 185.96 41.73
  A 0.53 0.52 -1.9 0 0 186.46 42.19
  Q 187.06 42.21 186.99 41.50
  Q 186.03 32.50 185.30 23.62
  A 0.64 0.64 0.0 0 1 185.80 22.94
  C 195.35 20.83 206.15 18.36 214.75 13.56
  A 1.02 1.01 45.4 0 0 214.76 11.79
  L 212.18 10.31
  A 0.48 0.48 0.0 0 0 211.47 10.78
  Q 211.57 11.68 212.47 11.82"
/>
<path stroke="#7f7f7f" vector-effect="non-scaling-stroke" d="
  M 86.27 11.63
  Q 85.29 11.74 84.86 12.30
  A 0.68 0.68 0.0 0 0 85.13 13.34
  L 103.80 21.06
  A 0.85 0.84 -74.6 0 1 104.31 21.97
  Q 103.10 29.68 101.86 37.02
  Q 101.52 38.99 102.82 40.21
  A 0.26 0.26 0.0 0 0 103.25 40.02
  Q 103.33 31.15 105.43 22.73
  Q 105.77 21.38 105.40 20.13
  A 1.04 1.04 0.0 0 0 104.76 19.45
  Q 95.97 16.38 87.46 12.76
  Q 86.85 12.50 87.10 11.81"
/>
<path stroke="#686969" vector-effect="non-scaling-stroke" d="
  M 87.10 11.81
  Q 89.51 12.02 91.27 12.71
  C 98.49 15.52 105.41 18.42 113.01 20.06"
/>
<path stroke="#4d4d4d" vector-effect="non-scaling-stroke" d="
  M 113.01 20.06
  Q 134.14 23.45 144.00 23.50
  Q 148.71 23.53 166.49 21.89"
/>
<path stroke="#686969" vector-effect="non-scaling-stroke" d="
  M 166.49 21.89
  L 188.67 18.62"
/>
<path stroke="#7f7f7f" vector-effect="non-scaling-stroke" d="
  M 188.67 18.62
  Q 199.45 16.70 209.18 12.61"
/>
<path stroke="#686969" vector-effect="non-scaling-stroke" d="
  M 209.18 12.61
  Q 210.25 12.99 210.54 12.28
  Q 210.76 11.77 210.22 11.91
  L 207.69 12.54"
/>
<path stroke="#7f7f7f" vector-effect="non-scaling-stroke" d="
  M 207.69 12.54
  L 190.76 12.87"
/>
<path stroke="#686969" vector-effect="non-scaling-stroke" d="
  M 190.76 12.87
  L 171.93 14.10"
/>
<path stroke="#4d4d4d" vector-effect="non-scaling-stroke" d="
  M 171.93 14.10
  L 121.63 14.11"
/>
<path stroke="#686969" vector-effect="non-scaling-stroke" d="
  M 121.63 14.11
  Q 106.97 13.30 92.66 12.08
  C 90.72 11.91 88.25 10.40 86.27 11.63"
/>
<path stroke="#b5b6b6" vector-effect="non-scaling-stroke" d="
  M 121.63 14.11
  L 107.45 15.08
  Q 106.65 15.13 106.93 15.88
  Q 108.05 18.89 111.80 18.70
  Q 112.95 18.64 113.01 20.06"
/>
<path stroke="#e7e8e8" vector-effect="non-scaling-stroke" d="
  M 87.10 11.81
  Q 86.86 11.94 86.27 11.63"
/>
<path stroke="#b5b6b6" vector-effect="non-scaling-stroke" d="
  M 166.49 21.89
  Q 165.01 21.53 166.20 20.58
  A 1.57 1.56 -63.6 0 1 167.20 20.24
  Q 172.30 20.30 177.20 18.97
  Q 178.00 18.75 177.73 17.96
  L 176.99 15.79
  A 0.60 0.60 0.0 0 1 177.54 15.00
  L 178.69 14.97
  Q 178.70 14.97 178.69 14.95
  Q 178.69 14.92 178.68 14.89
  A 0.10 0.10 0.0 0 0 178.57 14.79
  Q 174.81 15.17 171.93 14.10"
/>
<path stroke="#e7e8e8" vector-effect="non-scaling-stroke" d="
  M 188.67 18.62
  Q 187.31 18.19 189.13 17.09
  C 190.38 16.33 192.24 16.33 193.74 15.65
  Q 194.18 15.45 194.67 15.47
  Q 196.34 15.52 197.88 14.74
  Q 198.65 14.35 197.79 14.31
  Q 194.78 14.17 191.80 14.46
  Q 191.01 14.53 190.83 14.14
  Q 190.64 13.72 190.76 12.87"
/>
<path stroke="#e7e8e8" vector-effect="non-scaling-stroke" d="
  M 209.18 12.61
  Q 208.73 12.40 207.69 12.54"
/>
<path stroke="#7f7f7f" vector-effect="non-scaling-stroke" d="
  M 215.3975 14.3719
  A 0.30 0.30 0.0 0 0 215.0445 14.1365
  L 214.6523 14.2149
  A 0.30 0.30 0.0 0 0 214.4169 14.5679
  L 217.0425 27.7081
  A 0.30 0.30 0.0 0 0 217.3955 27.9435
  L 217.7877 27.8651
  A 0.30 0.30 0.0 0 0 218.0231 27.5121
  L 215.3975 14.3719"
/>
<path stroke="#686969" vector-effect="non-scaling-stroke" d="
  M 187.79 28.49
  L 188.08 33.17"
/>
<path stroke="#7f7f7f" vector-effect="non-scaling-stroke" d="
  M 188.08 33.17
  L 188.01 34.39
  Q 187.97 35.06 188.61 34.86
  L 213.77 27.31
  Q 214.36 27.14 214.27 26.53
  L 212.91 17.52
  Q 212.86 17.20 212.55 17.29
  L 187.98 24.35
  Q 187.50 24.49 187.53 24.99
  L 187.79 28.49"
/>
<path stroke="#e7e8e8" vector-effect="non-scaling-stroke" d="
  M 188.08 33.17
  C 196.23 31.59 205.13 29.49 212.71 25.94
  A 1.06 1.06 0.0 0 0 213.05 24.27
  Q 211.51 22.57 212.18 20.53
  A 1.22 1.22 0.0 0 0 210.68 18.98
  L 190.47 24.86
  Q 189.89 25.03 189.54 25.52
  Q 188.42 27.03 189.03 28.71
  A 0.22 0.22 0.0 0 1 188.77 29.00
  Q 188.60 28.97 188.44 29.02
  Q 188.14 29.10 188.01 28.82
  Q 187.92 28.60 187.79 28.49"
/>
<path stroke="#7f7f7f" vector-effect="non-scaling-stroke" d="
  M 144.25 25.52
  C 131.90 23.91 119.59 22.72 107.25 20.80
  Q 106.55 20.69 106.80 21.36
  Q 106.91 21.65 107.15 21.92
  Q 107.43 22.24 108.08 22.38
  Q 124.84 26.04 141.89 28.08
  Q 142.35 28.13 142.70 27.84
  L 144.42 26.42
  Q 144.75 26.14 145.19 26.13
  C 157.30 25.98 169.06 26.32 180.98 23.69
  Q 182.12 23.44 181.99 22.23
  A 0.66 0.66 0.0 0 0 181.23 21.64
  Q 164.08 24.33 146.71 24.76
  Q 146.21 24.77 145.81 25.07
  Q 145.05 25.63 144.25 25.52"
/>
<path stroke="#7f7f7f" vector-effect="non-scaling-stroke" d="
  M 105.95 34.07
  Q 124.12 39.24 143.00 40.08
  Q 143.54 40.10 143.40 39.58
  Q 142.29 35.48 142.53 31.20
  A 1.20 1.19 4.9 0 0 141.47 29.95
  Q 124.20 27.83 107.25 23.86
  Q 106.76 23.75 106.68 24.24
  L 105.17 32.82
  A 1.09 1.09 0.0 0 0 105.95 34.07"
/>
<path stroke="#7f7f7f" vector-effect="non-scaling-stroke" d="
  M 153.78 39.61
  Q 164.73 39.38 176.36 36.93"
/>
<path stroke="#686969" vector-effect="non-scaling-stroke" d="
  M 176.36 36.93
  L 183.00 35.75
  Q 183.36 35.69 183.32 35.33
  L 182.32 25.74
  A 0.68 0.68 0.0 0 0 181.50 25.15
  Q 168.74 27.97 155.32 27.31
  Q 150.59 27.08 145.88 27.32
  A 2.36 2.36 0.0 0 0 143.65 29.67
  Q 143.62 33.92 144.47 38.99
  Q 144.73 40.55 146.45 39.83
  Q 146.90 39.65 146.77 39.18
  C 146.26 37.36 145.52 35.26 146.09 33.50
  C 147.21 30.02 153.18 28.03 152.70 33.26
  A 2.00 2.00 0.0 0 1 149.51 34.68
  L 147.50 33.16
  A 0.62 0.61 -77.5 0 0 146.53 33.78
  L 147.62 38.96
  Q 147.77 39.69 148.51 39.68
  L 153.78 39.61"
/>
<path stroke="#e7e8e8" vector-effect="non-scaling-stroke" d="
  M 176.36 36.93
  Q 174.21 35.81 171.45 36.46
  C 168.22 37.23 166.25 37.54 163.56 37.89
  C 160.36 38.31 156.82 37.78 153.32 38.63
  A 0.43 0.43 0.0 0 0 153.29 39.45
  L 153.78 39.61"
/>
<path stroke="#686969" vector-effect="non-scaling-stroke" d="
  M 57.34 363.83
  L 57.59 371.23"
/>
<path stroke="#7f7f7f" vector-effect="non-scaling-stroke" d="
  M 57.59 371.23
  L 57.51 374.43
  Q 57.49 375.11 56.82 375.18
  L 55.69 375.29
  A 0.46 0.46 0.0 0 0 55.50 376.14
  Q 66.32 382.59 78.26 384.03"
/>
<path stroke="#686969" vector-effect="non-scaling-stroke" d="
  M 78.26 384.03
  C 88.81 386.21 96.92 385.09 108.15 383.10
  Q 108.64 383.02 108.72 382.53
  L 110.27 372.73"
/>
<path stroke="#7f7f7f" vector-effect="non-scaling-stroke" d="
  M 110.27 372.73
  L 114.66 345.58"
/>
<path stroke="#686969" vector-effect="non-scaling-stroke" d="
  M 114.66 345.58
  Q 115.55 341.99 116.02 338.50
  Q 119.42 313.02 122.49 287.50
  C 122.95 283.70 122.59 279.34 124.10 275.11
  C 126.47 268.47 126.32 259.53 126.49 250.25"
/>
<path stroke="#4d4d4d" vector-effect="non-scaling-stroke" d="
  M 126.49 250.25
  Q 126.87 249.00 126.64 247.94"
/>
<path stroke="#7f7f7f" vector-effect="non-scaling-stroke" d="
  M 126.64 247.94
  C 128.82 240.30 132.06 232.97 133.97 225.49
  C 138.76 206.70 142.86 188.00 146.83 169.02
  Q 148.23 162.35 148.54 155.83"
/>
<path stroke="#4d4d4d" vector-effect="non-scaling-stroke" d="
  M 148.54 155.83
  L 149.80 155.77"
/>
<path stroke="#7f7f7f" vector-effect="non-scaling-stroke" d="
  M 149.80 155.77
  Q 149.49 159.29 149.96 160.52
  C 154.73 172.99 155.73 185.49 157.68 198.14
  C 159.80 211.92 163.00 223.68 167.30 236.25
  Q 168.61 240.08 168.93 243.92
  Q 171.04 269.38 173.47 294.81
  C 174.24 302.87 174.90 310.83 178.12 318.37
  A 1.93 1.90 -54.0 0 1 178.26 319.31
  Q 177.74 323.85 178.08 327.19
  Q 180.13 347.83 184.40 370.33"
/>
<path stroke="#686969" vector-effect="non-scaling-stroke" d="
  M 184.40 370.33
  Q 186.18 376.53 185.69 381.48
  A 0.72 0.72 0.0 0 0 186.24 382.26
  Q 195.39 384.49 204.74 385.20
  Q 214.10 385.92 221.62 383.56"
/>
<path stroke="#7f7f7f" vector-effect="non-scaling-stroke" d="
  M 221.62 383.56
  Q 233.02 382.30 242.00 376.22
  Q 242.39 375.95 242.38 375.47
  Q 241.76 357.14 241.12 338.82
  Q 240.50 321.04 235.39 269.91
  C 234.16 257.57 234.86 243.25 233.71 232.25
  C 231.67 212.61 229.98 193.00 229.72 173.24"
/>
<path stroke="#4d4d4d" vector-effect="non-scaling-stroke" d="
  M 229.72 173.24
  Q 229.48 172.14 229.78 170.88
  Q 229.88 170.50 229.48 170.50
  Q 229.34 170.50 229.20 170.50
  Q 228.62 170.49 228.76 171.05
  L 229.29 173.18"
/>
<path stroke="#7f7f7f" vector-effect="non-scaling-stroke" d="
  M 229.29 173.18
  Q 228.80 173.63 228.79 175.00
  Q 228.71 182.53 228.11 190.14
  Q 228.06 190.81 227.53 190.40
  Q 227.08 190.05 227.21 189.11
  Q 227.32 188.33 227.30 187.89
  C 226.90 176.56 228.44 165.19 228.49 154.36
  C 228.56 135.29 229.42 119.82 227.42 97.70"
/>
<path stroke="#686969" vector-effect="non-scaling-stroke" d="
  M 227.42 97.70
  L 224.61 91.74"
/>
<path stroke="#7f7f7f" vector-effect="non-scaling-stroke" d="
  M 224.61 91.74
  C 216.53 77.02 208.04 60.11 206.19 43.25
  Q 206.14 42.78 206.56 42.57
  Q 206.71 42.49 206.86 42.49
  Q 207.36 42.48 207.44 42.97
  C 210.39 60.41 218.52 77.83 227.20 93.66
  A 0.30 0.29 -62.9 0 0 227.75 93.48
  C 225.49 74.65 223.84 55.92 220.27 37.24
  Q 219.63 33.88 218.62 30.50
  Q 218.49 30.05 218.03 29.92
  Q 214.45 28.93 212.29 29.75
  Q 200.73 34.15 188.67 36.98
  Q 188.14 37.11 188.21 37.65
  C 188.55 40.02 189.78 42.92 187.07 44.61
  A 1.16 1.14 -54.1 0 1 186.17 44.76
  C 183.67 44.13 183.89 40.89 183.74 38.30
  Q 183.72 37.85 183.28 37.96
  Q 165.69 42.25 147.62 42.00
  Q 147.17 42.00 147.17 42.45
  C 147.24 60.36 147.33 78.10 147.98 95.98
  A 2.60 2.59 3.3 0 0 150.19 98.46
  Q 156.14 99.35 159.97 91.12"
/>
<path stroke="#686969" vector-effect="non-scaling-stroke" d="
  M 159.97 91.12
  Q 161.42 68.24 160.55 43.97"
/>
<path stroke="#7f7f7f" vector-effect="non-scaling-stroke" d="
  M 160.55 43.97
  Q 160.74 42.69 161.75 42.53
  Q 162.32 42.44 162.43 43.01
  Q 162.74 44.59 162.74 46.75
  Q 162.75 68.77 162.63 82.74
  C 162.57 90.42 158.98 103.07 148.94 99.82
  Q 148.50 99.67 148.55 100.13
  Q 150.62 122.75 149.25 145.10"
/>
<path stroke="#686969" vector-effect="non-scaling-stroke" d="
  M 149.25 145.10
  L 148.64 147.54"
/>
<path stroke="#4d4d4d" vector-effect="non-scaling-stroke" d="
  M 148.64 147.54
  L 147.70 150.97"
/>
<path stroke="#7f7f7f" vector-effect="non-scaling-stroke" d="
  M 147.70 150.97
  C 143.59 173.34 138.97 191.58 135.19 212.02
  C 133.91 218.98 132.01 225.81 130.36 232.72
  C 129.29 237.24 127.00 241.73 125.83 246.54"
/>
<path stroke="#4d4d4d" vector-effect="non-scaling-stroke" d="
  M 125.83 246.54
  Q 125.59 246.58 125.08 246.40"
/>
<path stroke="#686969" vector-effect="non-scaling-stroke" d="
  M 125.08 246.40
  C 126.38 241.35 128.26 236.32 129.34 231.45
  Q 133.76 211.57 137.75 191.59
  C 139.67 181.97 143.11 168.19 145.02 156.28"
/>
<path stroke="#7f7f7f" vector-effect="non-scaling-stroke" d="
  M 145.02 156.28
  Q 147.62 146.96 148.64 137.56
  A 0.38 0.38 0.0 0 0 147.90 137.41
  L 142.64 154.97"
/>
<path stroke="#686969" vector-effect="non-scaling-stroke" d="
  M 142.64 154.97
  Q 141.50 158.85 140.58 162.77
  Q 131.14 202.75 124.66 243.31
  C 124.48 244.41 123.98 245.74 123.91 247.03"
/>
<path stroke="#4d4d4d" vector-effect="non-scaling-stroke" d="
  M 123.91 247.03
  Q 123.15 246.89 122.80 247.25"
/>
<path stroke="#7f7f7f" vector-effect="non-scaling-stroke" d="
  M 122.80 247.25
  C 126.95 219.66 132.31 192.45 138.48 165.25
  Q 141.46 152.09 147.08 136.51
  Q 147.89 134.24 147.73 131.84
  C 147.00 120.77 147.26 109.50 146.35 98.68
  C 144.79 80.23 145.65 61.52 145.16 42.97
  Q 145.15 42.37 144.55 42.35
  Q 124.78 41.60 105.79 36.13
  Q 105.25 35.97 105.29 36.54
  C 105.44 38.77 106.24 41.73 103.11 42.41
  A 1.18 1.17 58.5 0 1 102.09 42.16
  Q 98.83 39.39 100.54 35.32
  A 0.36 0.36 0.0 0 0 100.33 34.84
  L 83.59 28.73
  Q 83.31 28.63 83.18 28.36
  L 82.95 27.87
  Q 82.40 26.72 82.18 27.97
  Q 78.41 49.21 76.31 70.67
  C 75.97 74.24 74.79 78.11 74.33 81.90
  A 0.37 0.37 0.0 0 0 75.04 82.07
  C 79.83 69.06 85.11 57.12 88.18 43.53
  Q 88.25 43.25 88.53 43.25
  L 88.98 43.25
  Q 89.40 43.25 89.37 43.67
  C 88.26 56.32 81.54 68.96 77.23 80.85
  C 75.92 84.44 73.03 90.32 72.51 95.25
  C 69.27 125.64 68.23 159.12 66.53 191.25
  Q 66.00 201.20 66.39 211.15
  C 66.48 213.62 65.87 216.52 65.98 218.50
  Q 66.60 230.11 65.31 240.24
  Q 63.75 252.40 63.75 252.44
  C 60.35 288.42 57.64 321.56 56.41 357.02
  Q 56.35 358.66 56.73 360.44
  Q 57.15 362.38 57.34 363.83"
/>
<path stroke="#cccccc" vector-effect="non-scaling-stroke" d="
  M 122.80 247.25
  L 121.44 255.48"
/>
<path stroke="#e7e8e8" vector-effect="non-scaling-stroke" d="
  M 121.44 255.48
  Q 118.52 266.42 114.55 277.06
  Q 113.61 279.58 113.77 282.04
  Q 113.98 285.27 114.41 288.23"
/>
<path stroke="#7f7f7f" vector-effect="non-scaling-stroke" d="
  M 114.41 288.23
  C 110.19 304.92 109.23 324.46 104.15 342.34
  Q 103.99 342.92 103.99 343.49"
/>
<path stroke="#e7e8e8" vector-effect="non-scaling-stroke" d="
  M 103.99 343.49
  C 99.08 356.42 91.81 365.24 81.53 374.28
  C 72.97 381.80 63.16 368.69 57.34 363.83"
/>
<path stroke="#b5b6b6" vector-effect="non-scaling-stroke" d="
  M 125.08 246.40
  L 124.07 257.43
  A 0.40 0.40 0.0 0 0 124.86 257.51
  L 125.62 250.69
  Q 125.66 250.26 126.10 250.25
  L 126.49 250.25"
/>
<path stroke="#e7e8e8" vector-effect="non-scaling-stroke" d="
  M 114.66 345.58
  Q 113.07 343.56 111.05 343.72
  Q 110.52 343.75 110.42 344.28
  Q 109.95 346.71 110.52 349.24"
/>
<path stroke="#686969" vector-effect="non-scaling-stroke" d="
  M 110.52 349.24
  Q 109.75 349.55 110.08 350.10"
/>
<path stroke="#e7e8e8" vector-effect="non-scaling-stroke" d="
  M 110.08 350.10
  Q 109.64 348.90 108.41 348.48"
/>
<path stroke="#686969" vector-effect="non-scaling-stroke" d="
  M 108.41 348.48
  Q 112.89 323.34 116.67 298.08
  C 117.58 291.98 117.86 287.73 121.70 282.63
  A 0.53 0.52 4.9 0 0 121.04 281.85
  Q 121.00 281.87 120.86 282.24"
/>
<path stroke="#e7e8e8" vector-effect="non-scaling-stroke" d="
  M 120.86 282.24
  Q 119.92 281.56 119.19 282.69
  Q 117.23 285.71 115.24 288.39"
/>
<path stroke="#686969" vector-effect="non-scaling-stroke" d="
  M 115.24 288.39
  Q 114.72 288.79 114.41 288.23"
/>
<path stroke="#b5b6b6" vector-effect="non-scaling-stroke" d="
  M 121.44 255.48
  L 122.14 255.50
  Q 122.59 255.51 122.66 255.06
  L 123.91 247.03"
/>
<path stroke="#686969" vector-effect="non-scaling-stroke" d="
  M 105.18 342.87
  Q 104.28 343.59 103.99 343.49"
/>
<path stroke="#e7e8e8" vector-effect="non-scaling-stroke" d="
  M 104.17 367.46
  Q 105.45 368.66 106.44 368.50"
/>
<path stroke="#686969" vector-effect="non-scaling-stroke" d="
  M 106.44 368.50
  L 105.11 380.27
  Q 105.02 381.01 105.44 380.40
  C 106.33 379.07 106.78 374.03 107.10 372.32"
/>
<path stroke="#e7e8e8" vector-effect="non-scaling-stroke" d="
  M 107.10 372.32
  Q 108.04 373.10 110.27 372.73"
/>
<path stroke="#e7e8e8" vector-effect="non-scaling-stroke" d="
  M 78.26 384.03
  Q 78.75 384.04 78.77 383.55
  A 0.44 0.43 6.8 0 0 78.41 383.10
  C 72.23 381.98 63.25 380.07 58.26 376.04
  Q 57.81 375.68 58.14 375.21
  Q 60.29 372.11 57.59 371.23"
/>
<path stroke="#e7e8e8" vector-effect="non-scaling-stroke" d="
  M 145.02 156.28
  Q 143.38 156.46 142.64 154.97"
/>
<path stroke="#7f7f7f" vector-effect="non-scaling-stroke" d="
  M 110.08 350.10
  L 106.44 368.50"
/>
<path stroke="#7f7f7f" vector-effect="non-scaling-stroke" d="
  M 108.41 348.48
  L 104.17 367.46"
/>
<path stroke="#686969" vector-effect="non-scaling-stroke" d="
  M 104.17 367.46
  C 102.65 371.62 99.63 377.62 95.33 379.08
  Q 94.89 379.23 94.49 378.99
  Q 93.55 378.45 93.16 377.68"
/>
<path stroke="#7f7f7f" vector-effect="non-scaling-stroke" d="
  M 93.16 377.68
  Q 95.22 378.87 96.62 377.37
  C 102.97 370.61 104.37 362.28 106.00 353.00
  C 108.78 337.11 111.56 321.25 113.76 305.27
  C 115.11 295.47 115.78 289.36 120.86 282.24"
/>
<path stroke="#7f7f7f" vector-effect="non-scaling-stroke" d="
  M 107.10 372.32
  Q 109.49 361.64 110.59 350.98
  Q 110.67 350.14 110.52 349.24"
/>
<path stroke="#e7e8e8" vector-effect="non-scaling-stroke" d="
  M 93.16 377.68
  Q 92.93 377.39 92.83 377.09
  Q 92.74 376.81 92.91 376.46
  Q 97.08 367.85 100.68 358.98
  C 101.69 356.49 104.32 354.00 104.95 351.70
  Q 105.82 348.57 105.18 342.87"
/>
<path stroke="#7f7f7f" vector-effect="non-scaling-stroke" d="
  M 105.18 342.87
  Q 109.66 328.70 111.39 313.60
  C 112.41 304.73 114.05 296.86 115.24 288.39"
/>
<path stroke="#cccccc" vector-effect="non-scaling-stroke" d="
  M 126.64 247.94
  Q 126.45 248.03 126.20 248.01
  Q 125.72 247.99 125.75 247.50
  L 125.83 246.54"
/>
<path stroke="#cccccc" vector-effect="non-scaling-stroke" d="
  M 148.54 155.83
  Q 148.93 151.91 147.70 150.97"
/>
<path stroke="#e7e8e8" vector-effect="non-scaling-stroke" d="
  M 227.42 97.70
  Q 225.14 102.23 223.47 102.66
  Q 222.98 102.79 223.05 103.28
  C 223.20 104.55 223.82 106.13 223.90 107.15
  Q 225.50 126.28 225.91 145.47
  Q 225.97 148.10 226.75 154.98
  Q 227.48 161.38 226.61 167.80
  C 225.61 175.23 226.25 182.37 226.25 189.72
  C 226.25 191.21 226.87 192.86 226.81 194.76
  Q 226.45 206.04 224.91 214.99
  C 223.93 220.71 219.58 225.05 214.53 230.47
  A 1.12 1.11 65.6 0 0 214.23 231.28
  Q 214.26 232.20 215.08 232.66
  A 1.36 1.34 -84.2 0 1 215.69 233.42
  C 216.90 237.26 220.68 246.41 219.88 249.53
  Q 214.41 271.09 205.37 290.35
  Q 204.46 292.30 202.36 293.83
  A 0.41 0.40 74.8 0 1 201.72 293.46
  Q 202.10 289.52 200.27 286.02
  A 1.23 1.20 -47.9 0 1 200.23 284.99
  Q 203.37 277.48 205.77 269.80
  C 206.16 268.52 205.78 267.76 205.20 266.66"
/>
<path stroke="#686969" vector-effect="non-scaling-stroke" d="
  M 205.20 266.66
  Q 205.85 264.67 204.73 264.37"
/>
<path stroke="#e7e8e8" vector-effect="non-scaling-stroke" d="
  M 204.73 264.37
  L 212.57 240.97
  Q 212.72 240.52 213.16 240.36
  Q 214.77 239.78 215.86 238.52
  Q 216.33 237.98 215.64 237.78
  Q 215.01 237.60 214.83 238.16"
/>
<path stroke="#686969" vector-effect="non-scaling-stroke" d="
  M 214.83 238.16
  Q 214.76 237.13 214.49 237.24"
/>
<path stroke="#e7e8e8" vector-effect="non-scaling-stroke" d="
  M 214.49 237.24
  Q 215.01 236.68 215.01 236.41
  A 0.41 0.37 80.8 0 0 214.52 236.02
  Q 209.29 237.66 207.44 242.70
  Q 207.24 243.24 206.77 243.56
  Q 203.51 245.81 198.74 245.48
  Q 185.36 244.56 176.65 235.52
  C 174.15 232.93 174.23 230.54 174.36 227.16
  Q 174.38 226.65 174.14 226.20
  C 168.46 215.86 168.07 203.55 168.72 192.33
  A 1.73 1.68 33.4 0 0 168.52 191.42
  C 163.66 182.47 158.87 173.35 153.56 164.67
  Q 150.32 159.34 150.65 154.02
  Q 150.88 150.30 150.08 149.14"
/>
<path stroke="#b5b6b6" vector-effect="non-scaling-stroke" d="
  M 150.08 149.14
  Q 149.74 147.56 148.64 147.54"
/>
<path stroke="#cccccc" vector-effect="non-scaling-stroke" d="
  M 229.29 173.18
  Q 229.45 173.29 229.72 173.24"
/>
<path stroke="#e7e8e8" vector-effect="non-scaling-stroke" d="
  M 221.62 383.56
  L 239.62 376.55
  A 0.78 0.78 0.0 0 0 240.11 375.73
  Q 237.65 355.95 236.79 336.06
  C 235.98 317.32 234.61 298.93 234.54 280.27
  C 234.53 279.33 233.94 278.07 233.99 277.23
  Q 234.51 268.70 231.34 260.81"
/>
<path stroke="#7f7f7f" vector-effect="non-scaling-stroke" d="
  M 231.34 260.81
  Q 232.61 254.53 232.41 248.45
  Q 232.40 248.25 232.30 248.10
  Q 232.18 247.93 232.04 247.81
  Q 231.59 247.39 231.68 248.00
  Q 231.94 249.75 231.67 250.93
  Q 229.25 261.58 228.84 272.57"
/>
<path stroke="#e7e8e8" vector-effect="non-scaling-stroke" d="
  M 228.84 272.57
  Q 226.55 278.74 228.32 282.12"
/>
<path stroke="#7f7f7f" vector-effect="non-scaling-stroke" d="
  M 228.32 282.12
  Q 226.54 290.87 225.99 299.00
  Q 225.06 312.92 225.68 328.99
  Q 225.71 329.60 226.00 329.92
  Q 226.42 330.38 226.99 330.24
  Q 227.48 330.12 227.43 329.61
  C 226.94 324.43 227.53 318.58 227.47 314.17
  Q 227.23 297.32 229.92 280.70"
/>
<path stroke="#e7e8e8" vector-effect="non-scaling-stroke" d="
  M 229.92 280.70
  L 230.99 281.54
  Q 231.37 281.84 231.24 282.30
  Q 229.33 289.15 229.41 293.57
  C 229.59 302.26 228.23 309.97 230.20 318.66
  C 232.21 327.52 231.13 336.60 231.47 344.90
  Q 231.79 352.76 232.05 360.65
  Q 232.07 361.16 231.61 361.38
  Q 224.25 364.97 219.01 371.22
  C 213.63 377.63 201.41 375.94 195.18 373.55
  Q 188.44 370.96 184.40 370.33"
/>
<path stroke="#cccccc" vector-effect="non-scaling-stroke" d="
  M 149.80 155.77
  L 150.08 149.14"
/>
<path stroke="#7f7f7f" vector-effect="non-scaling-stroke" d="
  M 214.49 237.24
  Q 208.98 239.28 208.49 245.22"
/>
<path stroke="#e7e8e8" vector-effect="non-scaling-stroke" d="
  M 208.49 245.22
  Q 207.94 245.43 207.29 245.33
  Q 206.70 245.24 206.52 245.81
  L 204.39 252.70
  Q 204.22 253.23 204.74 253.01
  Q 205.30 252.77 205.83 252.79"
/>
<path stroke="#7f7f7f" vector-effect="non-scaling-stroke" d="
  M 205.83 252.79
  C 200.47 268.05 191.59 280.29 185.35 292.83
  Q 185.13 293.28 185.62 293.17
  Q 185.88 293.12 186.08 292.82
  C 193.38 281.73 201.20 269.65 205.77 257.49
  Q 208.78 249.49 210.81 241.13
  Q 210.93 240.63 211.35 240.36
  L 214.83 238.16"
/>
<path stroke="#7f7f7f" vector-effect="non-scaling-stroke" d="
  M 204.73 264.37
  Q 201.06 278.26 193.91 290.76
  Q 193.42 291.62 194.33 291.22
  C 199.03 289.16 204.31 271.18 205.20 266.66"
/>
<path stroke="#e7e8e8" vector-effect="non-scaling-stroke" d="
  M 224.61 91.74
  L 222.31 92.98"
/>
<path stroke="#7f7f7f" vector-effect="non-scaling-stroke" d="
  M 222.31 92.98
  C 213.21 75.29 207.59 62.10 203.46 43.50
  C 203.24 42.53 203.37 40.58 202.53 39.43
  Q 202.02 38.73 201.88 39.59
  Q 201.43 42.57 201.90 44.81
  Q 206.37 66.51 217.29 86.77"
/>
<path stroke="#e7e8e8" vector-effect="non-scaling-stroke" d="
  M 217.29 86.77
  Q 217.22 87.13 216.54 87.51
  Q 216.09 87.76 216.31 88.23
  Q 218.02 91.96 219.32 95.83
  C 220.24 98.57 219.29 101.11 219.42 104.00
  C 220.27 123.14 221.64 142.87 219.98 161.97
  Q 217.28 192.93 212.70 225.49
  Q 212.17 229.26 213.72 232.70
  Q 213.92 233.15 213.49 233.38
  C 203.90 238.48 188.51 240.14 179.82 232.06
  C 177.51 229.92 175.94 226.39 174.40 223.44
  C 170.22 215.42 169.65 204.25 170.08 195.37
  A 1.64 1.60 -60.3 0 0 169.84 194.45
  Q 168.97 193.02 169.54 191.58
  Q 169.73 191.09 169.60 190.59
  Q 167.42 182.35 164.89 174.17
  C 164.17 171.86 164.91 170.19 166.81 168.97
  C 168.78 167.71 172.08 168.67 174.02 169.44
  Q 183.56 173.19 193.76 176.34
  A 1.89 1.88 21.8 0 0 196.01 175.38
  C 196.94 173.51 195.27 172.00 193.59 171.32
  C 183.86 167.38 176.91 163.31 167.21 156.42
  Q 158.51 150.24 149.25 145.10"
/>
<path stroke="#e7e8e8" vector-effect="non-scaling-stroke" d="
  M 160.55 43.97
  L 160.47 44.94
  Q 160.42 45.59 159.85 45.28
  L 158.63 44.62
  Q 158.33 44.46 158.33 44.80
  Q 158.53 65.74 158.61 86.69
  Q 158.62 89.02 156.27 93.74
  Q 155.91 94.47 156.59 94.02
  Q 157.47 93.45 157.60 92.42
  Q 157.73 91.40 159.97 91.12"
/>
<path stroke="#686969" vector-effect="non-scaling-stroke" d="
  M 205.83 252.79
  L 208.49 245.22"
/>
<path stroke="#686969" vector-effect="non-scaling-stroke" d="
  M 222.31 92.98
  L 223.18 96.04
  A 0.58 0.58 0.0 0 1 222.10 96.45
  L 217.29 86.77"
/>
<path stroke="#686969" vector-effect="non-scaling-stroke" d="
  M 231.34 260.81
  Q 230.83 262.10 230.75 266.00
  Q 230.71 268.04 228.84 272.57"
/>
<path stroke="#686969" vector-effect="non-scaling-stroke" d="
  M 229.92 280.70
  Q 230.33 279.81 230.23 279.16
  Q 230.13 278.49 229.83 279.10
  L 228.32 282.12"
/>
<path stroke="#686969" vector-effect="non-scaling-stroke" d="
  M 150.2148 33.6705
  A 1.19 1.03 79.6 0 0 151.0131 32.3141
  A 1.19 1.03 79.6 0 0 149.7852 31.3295
  A 1.19 1.03 79.6 0 0 148.9869 32.6859
  A 1.19 1.03 79.6 0 0 150.2148 33.6705"
/>
<path stroke="#7f7f7f" vector-effect="non-scaling-stroke" d="
  M 241.34 379.31
  Q 231.14 383.78 227.93 384.64
  Q 208.58 389.79 189.20 384.84
  Q 188.70 384.71 188.78 385.22
  L 190.40 395.81
  Q 190.48 396.30 190.98 396.31
  C 206.75 396.60 219.93 397.66 235.67 391.42
  Q 240.16 389.65 242.77 386.59"
/>
<path stroke="#686969" vector-effect="non-scaling-stroke" d="
  M 242.77 386.59
  Q 244.22 386.67 245.50 384.68
  C 246.85 382.57 247.30 378.95 247.43 376.55
  A 1.13 1.12 76.2 0 0 245.73 375.52
  Q 242.63 377.36 241.34 379.31"
/>
<path stroke="#e7e8e8" vector-effect="non-scaling-stroke" d="
  M 242.77 386.59
  Q 234.17 390.84 225.67 393.32
  C 223.81 393.86 221.87 393.65 219.88 394.58
  Q 219.29 394.86 219.55 394.26
  L 222.43 387.61
  A 1.02 1.01 -82.9 0 1 223.20 387.00
  Q 234.20 385.13 241.34 379.31"
/>
<path stroke="#7f7f7f" vector-effect="non-scaling-stroke" d="
  M 54.42 376.96
  C 54.00 376.65 53.66 376.04 53.03 375.77
  Q 52.54 375.56 52.48 376.09
  C 51.72 383.54 55.14 387.70 61.81 390.90
  C 76.47 397.95 90.80 396.69 106.57 396.29
  Q 107.06 396.27 107.12 395.78
  L 108.46 385.23
  Q 108.53 384.66 107.97 384.80
  C 91.00 389.10 69.05 387.89 54.42 376.96"
/>
<path stroke="#e7e8e8" vector-effect="non-scaling-stroke" d="
  M 86.16 60.97
  C 81.84 70.62 78.80 80.78 75.04 90.65
  Q 74.24 92.78 73.94 94.98
  A 0.60 0.60 0.0 0 0 75.09 95.31
  Q 81.90 80.03 87.37 64.20
  A 1.25 1.24 28.5 0 0 86.95 62.81
  Q 86.01 62.08 86.84 61.60"
/>
<path stroke="#7f7f7f" vector-effect="non-scaling-stroke" d="
  M 86.84 61.60
  Q 92.19 53.82 92.23 44.36
  Q 92.23 43.92 91.85 43.69
  L 91.58 43.53
  Q 90.99 43.18 90.91 43.87
  Q 89.98 52.80 86.16 60.97"
/>
<path stroke="#686969" vector-effect="non-scaling-stroke" d="
  M 86.84 61.60
  Q 86.18 61.53 86.16 60.97"
/>
<path stroke="#e7e8e8" vector-effect="non-scaling-stroke" d="
  M 130.40 74.63
  Q 127.90 76.45 130.38 78.40
  C 132.67 80.21 133.17 81.69 134.03 84.20
  Q 136.98 92.80 141.13 101.19
  A 0.54 0.54 0.0 0 0 142.15 101.05
  Q 142.51 99.21 142.10 96.98
  C 139.89 84.90 135.49 66.12 125.31 58.22
  Q 124.60 57.67 125.08 58.44
  Q 130.01 66.31 133.22 75.02
  A 0.80 0.79 -33.6 0 1 133.05 75.84
  Q 132.66 76.25 132.21 76.32"
/>
<path stroke="#7f7f7f" vector-effect="non-scaling-stroke" d="
  M 132.21 76.32
  Q 127.85 63.39 119.79 52.44
  Q 119.59 52.16 119.35 52.05
  Q 119.01 51.90 118.71 51.98
  Q 118.33 52.08 118.54 52.41
  Q 125.27 62.87 130.40 74.63"
/>
<path stroke="#686969" vector-effect="non-scaling-stroke" d="
  M 132.21 76.32
  Q 132.31 76.61 132.26 76.77
  Q 132.15 77.15 131.87 76.88
  Q 130.80 75.88 130.40 74.63"
/>
<path stroke="#e7e8e8" vector-effect="non-scaling-stroke" d="
  M 140.45 118.86
  Q 137.86 123.47 135.27 127.71
  C 123.72 146.65 122.31 167.22 118.78 188.53
  C 117.01 199.18 114.29 208.06 110.60 217.66
  C 108.96 221.94 108.46 226.05 107.67 230.45
  C 105.76 241.03 98.93 243.37 89.21 239.57
  Q 88.77 239.39 88.45 239.04
  Q 87.73 238.25 86.49 238.54"
/>
<path stroke="#7f7f7f" vector-effect="non-scaling-stroke" d="
  M 86.49 238.54
  L 84.23 231.91
  A 0.42 0.41 29.5 0 0 83.43 232.13
  Q 88.11 253.12 94.07 273.73
  Q 94.17 274.07 94.41 273.96
  Q 94.71 273.82 94.64 273.50
  C 92.42 262.51 89.76 251.88 86.97 241.03"
/>
<path stroke="#e7e8e8" vector-effect="non-scaling-stroke" d="
  M 86.97 241.03
  Q 88.02 240.74 88.28 241.74
  Q 91.30 253.37 94.32 265.03
  Q 94.45 265.52 94.86 265.80
  C 107.18 274.20 113.11 252.58 115.10 245.21
  Q 121.81 220.27 128.58 195.36
  C 130.13 189.66 130.81 183.58 131.97 177.64
  C 134.63 163.99 131.97 146.86 144.30 137.54
  Q 145.65 136.52 146.06 135.85
  C 147.35 133.77 146.01 132.33 145.99 130.62
  Q 145.94 125.00 146.28 119.45
  A 1.23 1.22 -64.9 0 0 145.96 118.55
  Q 144.21 116.66 141.27 117.49"
/>
<path stroke="#7f7f7f" vector-effect="non-scaling-stroke" d="
  M 141.27 117.49
  Q 138.39 117.56 136.80 118.03
  Q 127.47 120.80 107.51 127.38
  Q 107.01 127.55 107.07 128.08
  Q 107.09 128.35 107.35 128.54
  Q 107.65 128.76 108.21 128.64
  C 118.95 126.35 129.54 122.21 140.45 118.86"
/>
<path stroke="#686969" vector-effect="non-scaling-stroke" d="
  M 141.27 117.49
  Q 141.27 118.44 140.45 118.86"
/>
<path stroke="#686969" vector-effect="non-scaling-stroke" d="
  M 86.97 241.03
  L 86.49 238.54"
/>
<path stroke="#e7e8e8" vector-effect="non-scaling-stroke" d="
  M 70.18 176.31
  Q 69.30 190.17 73.10 203.45
  Q 74.33 207.77 74.56 211.17
  Q 75.45 224.72 75.46 238.31
  C 75.46 255.24 75.01 270.37 81.53 286.72
  C 85.01 295.47 87.96 303.47 92.72 312.29
  Q 92.96 312.73 93.25 312.79
  Q 93.63 312.85 93.48 312.50
  Q 89.74 303.58 86.61 294.42
  C 84.96 289.59 84.27 283.43 83.55 279.83
  Q 81.98 271.91 80.60 263.96
  C 79.38 256.87 78.88 249.40 78.07 242.03
  Q 77.20 234.18 76.88 225.55
  C 76.24 208.44 73.72 192.20 70.84 176.27
  Q 70.35 173.55 70.18 176.31"
/>
<path stroke="#7f7f7f" vector-effect="non-scaling-stroke" d="
  M 70.53 204.13
  C 70.21 218.91 67.33 233.32 66.39 247.99
  Q 66.34 248.76 66.75 249.19
  Q 67.16 249.62 67.25 249.03
  Q 68.99 237.15 70.42 225.23
  C 71.22 218.59 70.53 211.30 71.09 204.22
  Q 71.09 204.11 70.99 204.08
  Q 70.86 204.04 70.73 203.99
  Q 70.54 203.93 70.53 204.13"
/>
<path stroke="#7f7f7f" vector-effect="non-scaling-stroke" d="
  M 83.25 253.52
  C 84.67 263.91 87.54 274.00 91.05 283.79
  Q 91.43 284.85 91.42 283.73
  Q 91.40 281.79 91.05 280.49
  Q 87.49 267.03 84.07 253.53"
/>
<path stroke="#e7e8e8" vector-effect="non-scaling-stroke" d="
  M 84.07 253.53
  L 81.14 239.59
  A 0.76 0.75 -48.3 0 0 79.65 239.68
  C 79.60 240.25 80.40 241.71 80.53 242.56
  Q 81.40 248.17 83.25 253.52"
/>
<path stroke="#686969" vector-effect="non-scaling-stroke" d="
  M 84.07 253.53
  L 83.25 253.52"
/>
<path stroke="#7f7f7f" vector-effect="non-scaling-stroke" d="
  M 71.02 303.36
  C 71.52 306.21 71.59 309.89 71.84 311.99
  Q 72.88 320.79 74.08 329.57
  Q 74.17 330.25 74.77 330.53
  A 0.60 0.60 0.0 0 0 75.62 329.95
  Q 74.25 311.79 71.13 293.61
  C 70.92 292.36 71.33 290.40 70.58 289.18
  A 0.57 0.56 29.5 0 0 69.53 289.47
  Q 69.52 293.61 69.24 297.48
  Q 67.39 323.48 65.64 349.50
  Q 65.62 349.77 65.86 349.65
  C 65.96 349.60 66.42 343.26 66.57 342.36
  C 68.71 329.45 69.81 316.46 70.51 303.39
  A 0.26 0.26 0.0 0 1 71.02 303.36"
/>
<path stroke="#e7e8e8" vector-effect="non-scaling-stroke" d="
  M 210.99 53.69
  C 214.26 64.57 219.23 76.41 224.82 85.88
  A 0.27 0.27 0.0 0 0 225.31 85.69
  C 224.28 80.14 222.59 74.25 221.86 69.20
  Q 220.27 58.15 218.72 47.08
  C 218.15 42.98 217.59 36.73 216.39 31.60
  A 1.48 1.47 76.7 0 0 214.62 30.50
  L 210.19 31.55
  Q 209.57 31.70 209.61 32.33
  C 209.96 39.15 209.07 47.27 210.99 53.69"
/>
<path stroke="#e7e8e8" vector-effect="non-scaling-stroke" d="
  M 207.20 41.59
  L 207.00 42.00
  A 0.12 0.12 0.0 0 0 207.19 42.14
  Q 207.69 41.70 207.47 41.11
  Q 207.35 40.78 206.86 40.49
  Q 205.31 39.56 204.02 38.28
  A 0.12 0.11 43.4 0 0 203.85 38.28
  Q 203.74 38.38 203.63 38.49
  A 0.23 0.22 40.6 0 0 203.66 38.84
  L 207.08 41.17
  Q 207.32 41.33 207.20 41.59"
/>
<path stroke="#e7e8e8" vector-effect="non-scaling-stroke" d="
  M 166.64 96.04
  C 171.17 96.13 175.76 92.91 180.07 89.82
  Q 184.34 86.75 181.55 82.74
  A 1.20 1.19 36.4 0 1 181.39 81.73
  C 182.44 78.21 184.35 75.37 184.87 71.73
  Q 185.74 65.51 187.52 59.51
  Q 187.77 58.65 186.89 57.50"
/>
<path stroke="#7f7f7f" vector-effect="non-scaling-stroke" d="
  M 186.89 57.50
  L 189.07 51.95
  A 0.26 0.26 0.0 0 0 188.59 51.73
  Q 180.42 66.93 173.25 81.71
  Q 167.93 92.67 166.64 96.04"
/>
<path stroke="#686969" vector-effect="non-scaling-stroke" d="
  M 186.89 57.50
  L 185.60 60.27"
/>
<path stroke="#7f7f7f" vector-effect="non-scaling-stroke" d="
  M 185.60 60.27
  L 168.87 92.81"
/>
<path stroke="#686969" vector-effect="non-scaling-stroke" d="
  M 168.87 92.81
  L 166.64 96.04"
/>
<path stroke="#e7e8e8" vector-effect="non-scaling-stroke" d="
  M 168.87 92.81
  Q 168.50 93.07 169.02 93.68
  A 0.58 0.58 0.0 0 0 169.97 93.57
  L 186.08 61.95
  Q 186.34 61.43 186.03 60.94
  L 185.60 60.27"
/>
<path stroke="#e7e8e8" vector-effect="non-scaling-stroke" d="
  M 190.56 128.95
  C 176.62 129.92 164.49 128.28 151.37 122.38
  Q 150.87 122.16 150.87 122.71
  L 151.02 141.81
  A 0.67 0.67 0.0 0 0 151.66 142.48
  Q 153.47 142.58 155.27 142.10
  Q 168.97 138.43 181.42 131.65
  Q 184.18 130.14 190.60 129.46
  Q 190.72 129.45 190.74 129.34
  Q 190.76 129.23 190.72 129.07
  Q 190.69 128.94 190.56 128.95"
/>
<path stroke="#e7e8e8" vector-effect="non-scaling-stroke" d="
  M 227.50 248.05
  Q 227.08 254.75 227.23 261.07
  Q 227.36 266.42 228.67 261.23
  Q 230.39 254.46 228.43 245.51"
/>
<path stroke="#7f7f7f" vector-effect="non-scaling-stroke" d="
  M 228.43 245.51
  Q 230.15 234.34 230.15 224.82
  Q 230.15 219.27 229.36 224.76
  Q 227.89 234.97 227.50 248.05"
/>
<path stroke="#686969" vector-effect="non-scaling-stroke" d="
  M 228.43 245.51
  Q 228.31 248.57 227.50 248.05"
/>
<path stroke="#7f7f7f" vector-effect="non-scaling-stroke" d="
  M 173.80 276.33
  C 174.16 271.65 173.69 266.74 173.89 262.56
  Q 174.40 251.52 173.58 240.49
  Q 173.51 239.56 173.14 239.27
  Q 172.58 238.85 172.57 239.54
  Q 172.36 253.83 172.26 268.10
  C 172.24 270.91 172.68 273.73 173.14 276.36
  A 0.33 0.33 0.0 0 0 173.80 276.33"
/>
<path stroke="#e7e8e8" vector-effect="non-scaling-stroke" d="
  M 201.44 269.94
  Q 199.68 273.12 198.74 276.64
  Q 198.64 277.05 199.03 276.91
  Q 199.28 276.81 199.43 276.43
  Q 201.10 271.99 201.94 269.39
  A 0.20 0.20 0.0 0 0 201.63 269.16
  Q 201.12 269.54 201.44 269.94"
/>
<path stroke="#7f7f7f" vector-effect="non-scaling-stroke" d="
  M 174.47 286.55
  Q 173.55 292.00 175.20 299.84
  Q 175.27 300.19 175.52 299.93
  Q 175.83 299.59 175.80 299.23
  Q 174.98 290.96 175.31 286.66
  Q 176.04 277.25 174.47 286.55"
/>
<path stroke="#7f7f7f" vector-effect="non-scaling-stroke" d="
  M 225.33 289.34
  Q 225.69 288.58 225.18 288.53
  Q 224.47 288.47 224.35 289.17
  L 218.34 323.97
  A 0.84 0.82 -10.6 0 0 219.60 324.81
  Q 219.74 324.73 219.86 324.17
  Q 223.39 307.25 225.47 290.08
  Q 225.48 289.99 225.45 289.92
  Q 225.40 289.79 225.33 289.66
  Q 225.25 289.50 225.33 289.34"
/>
<path stroke="#7f7f7f" vector-effect="non-scaling-stroke" d="
  M 182.47 318.96
  L 181.21 319.06
  A 0.15 0.15 0.0 0 0 181.07 319.22
  L 182.72 339.26
  A 21.07 0.78 85.3 0 0 185.22 360.19
  L 185.22 360.19
  A 21.07 0.78 85.3 0 0 184.27 339.13
  L 182.63 319.10
  A 0.15 0.15 0.0 0 0 182.47 318.96"
/>
<path stroke="#e7e8e8" vector-effect="non-scaling-stroke" d="
  M 219.44 325.87
  L 211.30 354.93
  Q 211.24 355.15 211.44 355.04
  Q 211.64 354.93 211.75 354.70
  Q 217.03 343.61 218.83 330.77
  C 219.00 329.61 219.59 327.61 219.48 325.88
  A 0.02 0.02 0.0 0 0 219.44 325.87"
/>
</g>
<path fill="#000000" d="
  M 246.00 386.94
  Q 244.93 386.87 244.70 388.34
  C 227.98 399.39 208.50 399.53 189.36 397.86
  Q 188.92 397.82 188.85 397.37
  L 186.87 384.28
  A 0.58 0.57 -78.4 0 0 186.61 383.88
  C 184.11 382.20 184.72 380.58 184.20 378.14
  Q 179.19 354.24 176.28 330.00
  C 175.85 326.48 177.15 321.12 175.72 316.76
  Q 173.00 308.47 171.77 296.25
  Q 169.13 270.07 167.11 243.84
  Q 166.84 240.31 165.59 236.82
  Q 157.72 214.94 155.28 196.26
  Q 152.72 176.72 150.59 166.68
  Q 150.54 166.41 150.38 166.25
  Q 150.22 166.07 149.99 165.96
  Q 150.13 165.06 149.73 164.48
  A 0.41 0.41 0.0 0 0 148.99 164.79
  Q 149.10 165.40 149.51 165.96
  Q 149.03 166.17 148.98 166.49
  Q 144.09 194.18 137.12 221.42
  Q 134.50 231.63 130.41 241.33
  C 129.77 242.86 129.59 244.95 128.56 246.65
  Q 128.29 247.09 128.29 247.61
  C 128.32 256.89 128.10 266.99 125.55 275.97
  C 124.39 280.04 124.97 283.99 124.49 287.50
  Q 121.36 310.54 118.33 333.59
  C 116.43 348.06 113.96 362.19 111.57 376.45
  Q 111.54 376.60 110.72 379.97
  C 110.19 382.14 110.51 384.04 110.18 385.98
  Q 109.23 391.57 108.64 397.23
  Q 108.59 397.73 108.08 397.77
  Q 90.89 399.06 84.26 398.51
  C 71.59 397.45 47.62 393.30 50.99 374.93
  Q 51.09 374.34 51.68 374.20
  L 55.34 373.35
  A 0.86 0.85 -10.7 0 0 55.99 372.40
  Q 54.23 359.53 54.72 346.75
  C 55.55 325.33 57.63 304.09 59.07 282.71
  C 60.45 262.35 62.76 247.52 64.46 231.94
  C 64.94 227.51 64.03 222.08 64.34 217.01
  C 64.84 209.08 64.25 201.27 64.60 191.81
  Q 66.12 150.42 68.58 116.32
  C 69.89 98.26 73.17 79.82 75.35 61.56
  Q 77.42 44.33 80.53 27.26
  Q 80.79 25.85 81.85 25.11
  Q 82.24 24.84 82.24 24.37
  Q 82.23 19.59 84.41 15.48
  Q 84.76 15.81 84.69 16.01
  Q 82.94 21.09 84.33 26.49
  A 0.84 0.84 0.0 0 0 84.87 27.08
  L 100.19 32.47
  Q 100.76 32.67 100.85 32.08
  L 102.36 22.42
  Q 102.42 22.01 102.04 21.85
  L 84.79 14.70
  L 84.15 13.44
  Q 83.94 13.02 84.20 12.64
  Q 86.17 9.67 88.75 9.48
  C 102.09 8.48 119.18 9.67 132.31 9.72
  C 153.73 9.80 175.39 9.35 196.95 9.29
  C 201.89 9.28 214.84 7.02 216.31 13.80
  C 218.52 24.05 221.89 34.55 223.48 44.29
  Q 229.96 83.89 230.85 124.01
  C 231.10 135.05 230.30 151.00 230.89 164.54
  Q 231.06 168.57 231.17 175.98
  C 231.30 183.86 232.38 194.05 232.72 199.45
  C 233.06 204.80 233.33 209.95 233.94 215.50
  Q 235.97 234.04 236.49 258.25
  Q 236.56 261.97 237.84 275.56
  Q 241.92 318.77 243.05 336.94
  Q 243.55 344.91 244.14 373.00
  Q 244.15 373.52 244.67 373.61
  L 248.42 374.21
  Q 249.02 374.30 249.08 374.91
  Q 249.76 381.91 246.00 386.94
  Z
  M 201.08 9.69
  C 195.03 9.28 188.15 10.49 182.97 10.54
  C 169.85 10.67 156.15 11.27 143.67 11.03
  Q 124.42 10.67 105.18 9.89
  C 100.59 9.71 95.27 9.96 90.26 9.70
  Q 89.75 9.67 89.83 10.17
  Q 89.88 10.47 90.32 10.51
  C 130.26 13.86 169.37 13.01 209.32 10.90
  Q 209.64 10.88 209.73 10.55
  Q 209.87 10.07 209.37 10.06
  Q 205.22 9.98 201.08 9.69
  Z
  M 212.47 11.82
  A 0.74 0.74 0.0 0 1 212.63 13.24
  Q 198.74 18.84 183.92 21.18
  A 0.38 0.37 -8.6 0 0 183.60 21.60
  L 185.96 41.73
  A 0.53 0.52 -1.9 0 0 186.46 42.19
  Q 187.06 42.21 186.99 41.50
  Q 186.03 32.50 185.30 23.62
  A 0.64 0.64 0.0 0 1 185.80 22.94
  C 195.35 20.83 206.15 18.36 214.75 13.56
  A 1.02 1.01 45.4 0 0 214.76 11.79
  L 212.18 10.31
  A 0.48 0.48 0.0 0 0 211.47 10.78
  Q 211.57 11.68 212.47 11.82
  Z
  M 86.27 11.63
  Q 85.29 11.74 84.86 12.30
  A 0.68 0.68 0.0 0 0 85.13 13.34
  L 103.80 21.06
  A 0.85 0.84 -74.6 0 1 104.31 21.97
  Q 103.10 29.68 101.86 37.02
  Q 101.52 38.99 102.82 40.21
  A 0.26 0.26 0.0 0 0 103.25 40.02
  Q 103.33 31.15 105.43 22.73
  Q 105.77 21.38 105.40 20.13
  A 1.04 1.04 0.0 0 0 104.76 19.45
  Q 95.97 16.38 87.46 12.76
  Q 86.85 12.50 87.10 11.81
  Q 89.51 12.02 91.27 12.71
  C 98.49 15.52 105.41 18.42 113.01 20.06
  Q 134.14 23.45 144.00 23.50
  Q 148.71 23.53 166.49 21.89
  L 188.67 18.62
  Q 199.45 16.70 209.18 12.61
  Q 210.25 12.99 210.54 12.28
  Q 210.76 11.77 210.22 11.91
  L 207.69 12.54
  L 190.76 12.87
  L 171.93 14.10
  L 121.63 14.11
  Q 106.97 13.30 92.66 12.08
  C 90.72 11.91 88.25 10.40 86.27 11.63
  Z
  M 215.3975 14.3719
  A 0.30 0.30 0.0 0 0 215.0445 14.1365
  L 214.6523 14.2149
  A 0.30 0.30 0.0 0 0 214.4169 14.5679
  L 217.0425 27.7081
  A 0.30 0.30 0.0 0 0 217.3955 27.9435
  L 217.7877 27.8651
  A 0.30 0.30 0.0 0 0 218.0231 27.5121
  L 215.3975 14.3719
  Z
  M 187.79 28.49
  L 188.08 33.17
  L 188.01 34.39
  Q 187.97 35.06 188.61 34.86
  L 213.77 27.31
  Q 214.36 27.14 214.27 26.53
  L 212.91 17.52
  Q 212.86 17.20 212.55 17.29
  L 187.98 24.35
  Q 187.50 24.49 187.53 24.99
  L 187.79 28.49
  Z
  M 144.25 25.52
  C 131.90 23.91 119.59 22.72 107.25 20.80
  Q 106.55 20.69 106.80 21.36
  Q 106.91 21.65 107.15 21.92
  Q 107.43 22.24 108.08 22.38
  Q 124.84 26.04 141.89 28.08
  Q 142.35 28.13 142.70 27.84
  L 144.42 26.42
  Q 144.75 26.14 145.19 26.13
  C 157.30 25.98 169.06 26.32 180.98 23.69
  Q 182.12 23.44 181.99 22.23
  A 0.66 0.66 0.0 0 0 181.23 21.64
  Q 164.08 24.33 146.71 24.76
  Q 146.21 24.77 145.81 25.07
  Q 145.05 25.63 144.25 25.52
  Z
  M 105.95 34.07
  Q 124.12 39.24 143.00 40.08
  Q 143.54 40.10 143.40 39.58
  Q 142.29 35.48 142.53 31.20
  A 1.20 1.19 4.9 0 0 141.47 29.95
  Q 124.20 27.83 107.25 23.86
  Q 106.76 23.75 106.68 24.24
  L 105.17 32.82
  A 1.09 1.09 0.0 0 0 105.95 34.07
  Z
  M 153.78 39.61
  Q 164.73 39.38 176.36 36.93
  L 183.00 35.75
  Q 183.36 35.69 183.32 35.33
  L 182.32 25.74
  A 0.68 0.68 0.0 0 0 181.50 25.15
  Q 168.74 27.97 155.32 27.31
  Q 150.59 27.08 145.88 27.32
  A 2.36 2.36 0.0 0 0 143.65 29.67
  Q 143.62 33.92 144.47 38.99
  Q 144.73 40.55 146.45 39.83
  Q 146.90 39.65 146.77 39.18
  C 146.26 37.36 145.52 35.26 146.09 33.50
  C 147.21 30.02 153.18 28.03 152.70 33.26
  A 2.00 2.00 0.0 0 1 149.51 34.68
  L 147.50 33.16
  A 0.62 0.61 -77.5 0 0 146.53 33.78
  L 147.62 38.96
  Q 147.77 39.69 148.51 39.68
  L 153.78 39.61
  Z
  M 57.34 363.83
  L 57.59 371.23
  L 57.51 374.43
  Q 57.49 375.11 56.82 375.18
  L 55.69 375.29
  A 0.46 0.46 0.0 0 0 55.50 376.14
  Q 66.32 382.59 78.26 384.03
  C 88.81 386.21 96.92 385.09 108.15 383.10
  Q 108.64 383.02 108.72 382.53
  L 110.27 372.73
  L 114.66 345.58
  Q 115.55 341.99 116.02 338.50
  Q 119.42 313.02 122.49 287.50
  C 122.95 283.70 122.59 279.34 124.10 275.11
  C 126.47 268.47 126.32 259.53 126.49 250.25
  Q 126.87 249.00 126.64 247.94
  C 128.82 240.30 132.06 232.97 133.97 225.49
  C 138.76 206.70 142.86 188.00 146.83 169.02
  Q 148.23 162.35 148.54 155.83
  L 149.80 155.77
  Q 149.49 159.29 149.96 160.52
  C 154.73 172.99 155.73 185.49 157.68 198.14
  C 159.80 211.92 163.00 223.68 167.30 236.25
  Q 168.61 240.08 168.93 243.92
  Q 171.04 269.38 173.47 294.81
  C 174.24 302.87 174.90 310.83 178.12 318.37
  A 1.93 1.90 -54.0 0 1 178.26 319.31
  Q 177.74 323.85 178.08 327.19
  Q 180.13 347.83 184.40 370.33
  Q 186.18 376.53 185.69 381.48
  A 0.72 0.72 0.0 0 0 186.24 382.26
  Q 195.39 384.49 204.74 385.20
  Q 214.10 385.92 221.62 383.56
  Q 233.02 382.30 242.00 376.22
  Q 242.39 375.95 242.38 375.47
  Q 241.76 357.14 241.12 338.82
  Q 240.50 321.04 235.39 269.91
  C 234.16 257.57 234.86 243.25 233.71 232.25
  C 231.67 212.61 229.98 193.00 229.72 173.24
  Q 229.48 172.14 229.78 170.88
  Q 229.88 170.50 229.48 170.50
  Q 229.34 170.50 229.20 170.50
  Q 228.62 170.49 228.76 171.05
  L 229.29 173.18
  Q 228.80 173.63 228.79 175.00
  Q 228.71 182.53 228.11 190.14
  Q 228.06 190.81 227.53 190.40
  Q 227.08 190.05 227.21 189.11
  Q 227.32 188.33 227.30 187.89
  C 226.90 176.56 228.44 165.19 228.49 154.36
  C 228.56 135.29 229.42 119.82 227.42 97.70
  L 224.61 91.74
  C 216.53 77.02 208.04 60.11 206.19 43.25
  Q 206.14 42.78 206.56 42.57
  Q 206.71 42.49 206.86 42.49
  Q 207.36 42.48 207.44 42.97
  C 210.39 60.41 218.52 77.83 227.20 93.66
  A 0.30 0.29 -62.9 0 0 227.75 93.48
  C 225.49 74.65 223.84 55.92 220.27 37.24
  Q 219.63 33.88 218.62 30.50
  Q 218.49 30.05 218.03 29.92
  Q 214.45 28.93 212.29 29.75
  Q 200.73 34.15 188.67 36.98
  Q 188.14 37.11 188.21 37.65
  C 188.55 40.02 189.78 42.92 187.07 44.61
  A 1.16 1.14 -54.1 0 1 186.17 44.76
  C 183.67 44.13 183.89 40.89 183.74 38.30
  Q 183.72 37.85 183.28 37.96
  Q 165.69 42.25 147.62 42.00
  Q 147.17 42.00 147.17 42.45
  C 147.24 60.36 147.33 78.10 147.98 95.98
  A 2.60 2.59 3.3 0 0 150.19 98.46
  Q 156.14 99.35 159.97 91.12
  Q 161.42 68.24 160.55 43.97
  Q 160.74 42.69 161.75 42.53
  Q 162.32 42.44 162.43 43.01
  Q 162.74 44.59 162.74 46.75
  Q 162.75 68.77 162.63 82.74
  C 162.57 90.42 158.98 103.07 148.94 99.82
  Q 148.50 99.67 148.55 100.13
  Q 150.62 122.75 149.25 145.10
  L 148.64 147.54
  L 147.70 150.97
  C 143.59 173.34 138.97 191.58 135.19 212.02
  C 133.91 218.98 132.01 225.81 130.36 232.72
  C 129.29 237.24 127.00 241.73 125.83 246.54
  Q 125.59 246.58 125.08 246.40
  C 126.38 241.35 128.26 236.32 129.34 231.45
  Q 133.76 211.57 137.75 191.59
  C 139.67 181.97 143.11 168.19 145.02 156.28
  Q 147.62 146.96 148.64 137.56
  A 0.38 0.38 0.0 0 0 147.90 137.41
  L 142.64 154.97
  Q 141.50 158.85 140.58 162.77
  Q 131.14 202.75 124.66 243.31
  C 124.48 244.41 123.98 245.74 123.91 247.03
  Q 123.15 246.89 122.80 247.25
  C 126.95 219.66 132.31 192.45 138.48 165.25
  Q 141.46 152.09 147.08 136.51
  Q 147.89 134.24 147.73 131.84
  C 147.00 120.77 147.26 109.50 146.35 98.68
  C 144.79 80.23 145.65 61.52 145.16 42.97
  Q 145.15 42.37 144.55 42.35
  Q 124.78 41.60 105.79 36.13
  Q 105.25 35.97 105.29 36.54
  C 105.44 38.77 106.24 41.73 103.11 42.41
  A 1.18 1.17 58.5 0 1 102.09 42.16
  Q 98.83 39.39 100.54 35.32
  A 0.36 0.36 0.0 0 0 100.33 34.84
  L 83.59 28.73
  Q 83.31 28.63 83.18 28.36
  L 82.95 27.87
  Q 82.40 26.72 82.18 27.97
  Q 78.41 49.21 76.31 70.67
  C 75.97 74.24 74.79 78.11 74.33 81.90
  A 0.37 0.37 0.0 0 0 75.04 82.07
  C 79.83 69.06 85.11 57.12 88.18 43.53
  Q 88.25 43.25 88.53 43.25
  L 88.98 43.25
  Q 89.40 43.25 89.37 43.67
  C 88.26 56.32 81.54 68.96 77.23 80.85
  C 75.92 84.44 73.03 90.32 72.51 95.25
  C 69.27 125.64 68.23 159.12 66.53 191.25
  Q 66.00 201.20 66.39 211.15
  C 66.48 213.62 65.87 216.52 65.98 218.50
  Q 66.60 230.11 65.31 240.24
  Q 63.75 252.40 63.75 252.44
  C 60.35 288.42 57.64 321.56 56.41 357.02
  Q 56.35 358.66 56.73 360.44
  Q 57.15 362.38 57.34 363.83
  Z
  M 150.2148 33.6705
  A 1.19 1.03 79.6 0 0 151.0131 32.3141
  A 1.19 1.03 79.6 0 0 149.7852 31.3295
  A 1.19 1.03 79.6 0 0 148.9869 32.6859
  A 1.19 1.03 79.6 0 0 150.2148 33.6705
  Z
  M 241.34 379.31
  Q 231.14 383.78 227.93 384.64
  Q 208.58 389.79 189.20 384.84
  Q 188.70 384.71 188.78 385.22
  L 190.40 395.81
  Q 190.48 396.30 190.98 396.31
  C 206.75 396.60 219.93 397.66 235.67 391.42
  Q 240.16 389.65 242.77 386.59
  Q 244.22 386.67 245.50 384.68
  C 246.85 382.57 247.30 378.95 247.43 376.55
  A 1.13 1.12 76.2 0 0 245.73 375.52
  Q 242.63 377.36 241.34 379.31
  Z
  M 54.42 376.96
  C 54.00 376.65 53.66 376.04 53.03 375.77
  Q 52.54 375.56 52.48 376.09
  C 51.72 383.54 55.14 387.70 61.81 390.90
  C 76.47 397.95 90.80 396.69 106.57 396.29
  Q 107.06 396.27 107.12 395.78
  L 108.46 385.23
  Q 108.53 384.66 107.97 384.80
  C 91.00 389.10 69.05 387.89 54.42 376.96
  Z"
/>
<path fill="#fefefe" d="
  M 201.08 9.69
  Q 205.22 9.98 209.37 10.06
  Q 209.87 10.07 209.73 10.55
  Q 209.64 10.88 209.32 10.90
  C 169.37 13.01 130.26 13.86 90.32 10.51
  Q 89.88 10.47 89.83 10.17
  Q 89.75 9.67 90.26 9.70
  C 95.27 9.96 100.59 9.71 105.18 9.89
  Q 124.42 10.67 143.67 11.03
  C 156.15 11.27 169.85 10.67 182.97 10.54
  C 188.15 10.49 195.03 9.28 201.08 9.69
  Z"
/>
<path fill="#fefefe" d="
  M 212.47 11.82
  Q 211.57 11.68 211.47 10.78
  A 0.48 0.48 0.0 0 1 212.18 10.31
  L 214.76 11.79
  A 1.02 1.01 45.4 0 1 214.75 13.56
  C 206.15 18.36 195.35 20.83 185.80 22.94
  A 0.64 0.64 0.0 0 0 185.30 23.62
  Q 186.03 32.50 186.99 41.50
  Q 187.06 42.21 186.46 42.19
  A 0.53 0.52 -1.9 0 1 185.96 41.73
  L 183.60 21.60
  A 0.38 0.37 -8.6 0 1 183.92 21.18
  Q 198.74 18.84 212.63 13.24
  A 0.74 0.74 0.0 0 0 212.47 11.82
  Z"
/>
<path fill="#d0d2d2" d="
  M 121.63 14.11
  L 107.45 15.08
  Q 106.65 15.13 106.93 15.88
  Q 108.05 18.89 111.80 18.70
  Q 112.95 18.64 113.01 20.06
  C 105.41 18.42 98.49 15.52 91.27 12.71
  Q 89.51 12.02 87.10 11.81
  Q 86.86 11.94 86.27 11.63
  C 88.25 10.40 90.72 11.91 92.66 12.08
  Q 106.97 13.30 121.63 14.11
  Z"
/>
<path fill="#fefefe" d="
  M 86.27 11.63
  Q 86.86 11.94 87.10 11.81
  Q 86.85 12.50 87.46 12.76
  Q 95.97 16.38 104.76 19.45
  A 1.04 1.04 0.0 0 1 105.40 20.13
  Q 105.77 21.38 105.43 22.73
  Q 103.33 31.15 103.25 40.02
  A 0.26 0.26 0.0 0 1 102.82 40.21
  Q 101.52 38.99 101.86 37.02
  Q 103.10 29.68 104.31 21.97
  A 0.85 0.84 -74.6 0 0 103.80 21.06
  L 85.13 13.34
  A 0.68 0.68 0.0 0 1 84.86 12.30
  Q 85.29 11.74 86.27 11.63
  Z"
/>
<path fill="#d0d2d2" d="
  M 209.18 12.61
  Q 208.73 12.40 207.69 12.54
  L 210.22 11.91
  Q 210.76 11.77 210.54 12.28
  Q 210.25 12.99 209.18 12.61
  Z"
/>
<path fill="#fefefe" d="
  M 207.69 12.54
  Q 208.73 12.40 209.18 12.61
  Q 199.45 16.70 188.67 18.62
  Q 187.31 18.19 189.13 17.09
  C 190.38 16.33 192.24 16.33 193.74 15.65
  Q 194.18 15.45 194.67 15.47
  Q 196.34 15.52 197.88 14.74
  Q 198.65 14.35 197.79 14.31
  Q 194.78 14.17 191.80 14.46
  Q 191.01 14.53 190.83 14.14
  Q 190.64 13.72 190.76 12.87
  L 207.69 12.54
  Z"
/>
<path fill="#d0d2d2" d="
  M 190.76 12.87
  Q 190.64 13.72 190.83 14.14
  Q 191.01 14.53 191.80 14.46
  Q 194.78 14.17 197.79 14.31
  Q 198.65 14.35 197.88 14.74
  Q 196.34 15.52 194.67 15.47
  Q 194.18 15.45 193.74 15.65
  C 192.24 16.33 190.38 16.33 189.13 17.09
  Q 187.31 18.19 188.67 18.62
  L 166.49 21.89
  Q 165.01 21.53 166.20 20.58
  A 1.57 1.56 -63.6 0 1 167.20 20.24
  Q 172.30 20.30 177.20 18.97
  Q 178.00 18.75 177.73 17.96
  L 176.99 15.79
  A 0.60 0.60 0.0 0 1 177.54 15.00
  L 178.69 14.97
  Q 178.70 14.97 178.69 14.95
  Q 178.69 14.92 178.68 14.89
  A 0.10 0.10 0.0 0 0 178.57 14.79
  Q 174.81 15.17 171.93 14.10
  L 190.76 12.87
  Z"
/>
<path fill="#999999" d="
  M 121.63 14.11
  L 171.93 14.10
  Q 174.81 15.17 178.57 14.79
  A 0.10 0.10 0.0 0 1 178.68 14.89
  Q 178.69 14.92 178.69 14.95
  Q 178.70 14.97 178.69 14.97
  L 177.54 15.00
  A 0.60 0.60 0.0 0 0 176.99 15.79
  L 177.73 17.96
  Q 178.00 18.75 177.20 18.97
  Q 172.30 20.30 167.20 20.24
  A 1.57 1.56 -63.6 0 0 166.20 20.58
  Q 165.01 21.53 166.49 21.89
  Q 148.71 23.53 144.00 23.50
  Q 134.14 23.45 113.01 20.06
  Q 112.95 18.64 111.80 18.70
  Q 108.05 18.89 106.93 15.88
  Q 106.65 15.13 107.45 15.08
  L 121.63 14.11
  Z"
/>
<rect fill="#fefefe" x="-0.50" y="-7.00" transform="translate(216.22,21.04) rotate(-11.3)" width="1.00" height="14.00" rx="0.30"/>
<path fill="#fefefe" d="
  M 84.79 14.70
  L 102.04 21.85
  Q 102.42 22.01 102.36 22.42
  L 100.85 32.08
  Q 100.76 32.67 100.19 32.47
  L 84.87 27.08
  A 0.84 0.84 0.0 0 1 84.33 26.49
  Q 82.94 21.09 84.69 16.01
  Q 84.76 15.81 84.41 15.48
  Q 84.48 14.73 84.79 14.70
  Z"
/>
<path fill="#fefefe" d="
  M 188.08 33.17
  C 196.23 31.59 205.13 29.49 212.71 25.94
  A 1.06 1.06 0.0 0 0 213.05 24.27
  Q 211.51 22.57 212.18 20.53
  A 1.22 1.22 0.0 0 0 210.68 18.98
  L 190.47 24.86
  Q 189.89 25.03 189.54 25.52
  Q 188.42 27.03 189.03 28.71
  A 0.22 0.22 0.0 0 1 188.77 29.00
  Q 188.60 28.97 188.44 29.02
  Q 188.14 29.10 188.01 28.82
  Q 187.92 28.60 187.79 28.49
  L 187.53 24.99
  Q 187.50 24.49 187.98 24.35
  L 212.55 17.29
  Q 212.86 17.20 212.91 17.52
  L 214.27 26.53
  Q 214.36 27.14 213.77 27.31
  L 188.61 34.86
  Q 187.97 35.06 188.01 34.39
  L 188.08 33.17
  Z"
/>
<path fill="#d0d2d2" d="
  M 188.08 33.17
  L 187.79 28.49
  Q 187.92 28.60 188.01 28.82
  Q 188.14 29.10 188.44 29.02
  Q 188.60 28.97 188.77 29.00
  A 0.22 0.22 0.0 0 0 189.03 28.71
  Q 188.42 27.03 189.54 25.52
  Q 189.89 25.03 190.47 24.86
  L 210.68 18.98
  A 1.22 1.22 0.0 0 1 212.18 20.53
  Q 211.51 22.57 213.05 24.27
  A 1.06 1.06 0.0 0 1 212.71 25.94
  C 205.13 29.49 196.23 31.59 188.08 33.17
  Z"
/>
<path fill="#fefefe" d="
  M 107.25 20.80
  C 119.59 22.72 131.90 23.91 144.25 25.52
  Q 145.05 25.63 145.81 25.07
  Q 146.21 24.77 146.71 24.76
  Q 164.08 24.33 181.23 21.64
  A 0.66 0.66 0.0 0 1 181.99 22.23
  Q 182.12 23.44 180.98 23.69
  C 169.06 26.32 157.30 25.98 145.19 26.13
  Q 144.75 26.14 144.42 26.42
  L 142.70 27.84
  Q 142.35 28.13 141.89 28.08
  Q 124.84 26.04 108.08 22.38
  Q 107.43 22.24 107.15 21.92
  Q 106.91 21.65 106.80 21.36
  Q 106.55 20.69 107.25 20.80
  Z"
/>
<path fill="#fefefe" d="
  M 105.95 34.07
  A 1.09 1.09 0.0 0 1 105.17 32.82
  L 106.68 24.24
  Q 106.76 23.75 107.25 23.86
  Q 124.20 27.83 141.47 29.95
  A 1.20 1.19 4.9 0 1 142.53 31.20
  Q 142.29 35.48 143.40 39.58
  Q 143.54 40.10 143.00 40.08
  Q 124.12 39.24 105.95 34.07
  Z"
/>
<path fill="#d0d2d2" d="
  M 176.36 36.93
  Q 174.21 35.81 171.45 36.46
  C 168.22 37.23 166.25 37.54 163.56 37.89
  C 160.36 38.31 156.82 37.78 153.32 38.63
  A 0.43 0.43 0.0 0 0 153.29 39.45
  L 153.78 39.61
  L 148.51 39.68
  Q 147.77 39.69 147.62 38.96
  L 146.53 33.78
  A 0.62 0.61 -77.5 0 1 147.50 33.16
  L 149.51 34.68
  A 2.00 2.00 0.0 0 0 152.70 33.26
  C 153.18 28.03 147.21 30.02 146.09 33.50
  C 145.52 35.26 146.26 37.36 146.77 39.18
  Q 146.90 39.65 146.45 39.83
  Q 144.73 40.55 144.47 38.99
  Q 143.62 33.92 143.65 29.67
  A 2.36 2.36 0.0 0 1 145.88 27.32
  Q 150.59 27.08 155.32 27.31
  Q 168.74 27.97 181.50 25.15
  A 0.68 0.68 0.0 0 1 182.32 25.74
  L 183.32 35.33
  Q 183.36 35.69 183.00 35.75
  L 176.36 36.93
  Z"
/>
<path fill="#fefefe" d="
  M 122.80 247.25
  L 121.44 255.48
  Q 118.52 266.42 114.55 277.06
  Q 113.61 279.58 113.77 282.04
  Q 113.98 285.27 114.41 288.23
  C 110.19 304.92 109.23 324.46 104.15 342.34
  Q 103.99 342.92 103.99 343.49
  C 99.08 356.42 91.81 365.24 81.53 374.28
  C 72.97 381.80 63.16 368.69 57.34 363.83
  Q 57.15 362.38 56.73 360.44
  Q 56.35 358.66 56.41 357.02
  C 57.64 321.56 60.35 288.42 63.75 252.44
  Q 63.75 252.40 65.31 240.24
  Q 66.60 230.11 65.98 218.50
  C 65.87 216.52 66.48 213.62 66.39 211.15
  Q 66.00 201.20 66.53 191.25
  C 68.23 159.12 69.27 125.64 72.51 95.25
  C 73.03 90.32 75.92 84.44 77.23 80.85
  C 81.54 68.96 88.26 56.32 89.37 43.67
  Q 89.40 43.25 88.98 43.25
  L 88.53 43.25
  Q 88.25 43.25 88.18 43.53
  C 85.11 57.12 79.83 69.06 75.04 82.07
  A 0.37 0.37 0.0 0 1 74.33 81.90
  C 74.79 78.11 75.97 74.24 76.31 70.67
  Q 78.41 49.21 82.18 27.97
  Q 82.40 26.72 82.95 27.87
  L 83.18 28.36
  Q 83.31 28.63 83.59 28.73
  L 100.33 34.84
  A 0.36 0.36 0.0 0 1 100.54 35.32
  Q 98.83 39.39 102.09 42.16
  A 1.18 1.17 58.5 0 0 103.11 42.41
  C 106.24 41.73 105.44 38.77 105.29 36.54
  Q 105.25 35.97 105.79 36.13
  Q 124.78 41.60 144.55 42.35
  Q 145.15 42.37 145.16 42.97
  C 145.65 61.52 144.79 80.23 146.35 98.68
  C 147.26 109.50 147.00 120.77 147.73 131.84
  Q 147.89 134.24 147.08 136.51
  Q 141.46 152.09 138.48 165.25
  C 132.31 192.45 126.95 219.66 122.80 247.25
  Z
  M 86.16 60.97
  C 81.84 70.62 78.80 80.78 75.04 90.65
  Q 74.24 92.78 73.94 94.98
  A 0.60 0.60 0.0 0 0 75.09 95.31
  Q 81.90 80.03 87.37 64.20
  A 1.25 1.24 28.5 0 0 86.95 62.81
  Q 86.01 62.08 86.84 61.60
  Q 92.19 53.82 92.23 44.36
  Q 92.23 43.92 91.85 43.69
  L 91.58 43.53
  Q 90.99 43.18 90.91 43.87
  Q 89.98 52.80 86.16 60.97
  Z
  M 130.40 74.63
  Q 127.90 76.45 130.38 78.40
  C 132.67 80.21 133.17 81.69 134.03 84.20
  Q 136.98 92.80 141.13 101.19
  A 0.54 0.54 0.0 0 0 142.15 101.05
  Q 142.51 99.21 142.10 96.98
  C 139.89 84.90 135.49 66.12 125.31 58.22
  Q 124.60 57.67 125.08 58.44
  Q 130.01 66.31 133.22 75.02
  A 0.80 0.79 -33.6 0 1 133.05 75.84
  Q 132.66 76.25 132.21 76.32
  Q 127.85 63.39 119.79 52.44
  Q 119.59 52.16 119.35 52.05
  Q 119.01 51.90 118.71 51.98
  Q 118.33 52.08 118.54 52.41
  Q 125.27 62.87 130.40 74.63
  Z
  M 140.45 118.86
  Q 137.86 123.47 135.27 127.71
  C 123.72 146.65 122.31 167.22 118.78 188.53
  C 117.01 199.18 114.29 208.06 110.60 217.66
  C 108.96 221.94 108.46 226.05 107.67 230.45
  C 105.76 241.03 98.93 243.37 89.21 239.57
  Q 88.77 239.39 88.45 239.04
  Q 87.73 238.25 86.49 238.54
  L 84.23 231.91
  A 0.42 0.41 29.5 0 0 83.43 232.13
  Q 88.11 253.12 94.07 273.73
  Q 94.17 274.07 94.41 273.96
  Q 94.71 273.82 94.64 273.50
  C 92.42 262.51 89.76 251.88 86.97 241.03
  Q 88.02 240.74 88.28 241.74
  Q 91.30 253.37 94.32 265.03
  Q 94.45 265.52 94.86 265.80
  C 107.18 274.20 113.11 252.58 115.10 245.21
  Q 121.81 220.27 128.58 195.36
  C 130.13 189.66 130.81 183.58 131.97 177.64
  C 134.63 163.99 131.97 146.86 144.30 137.54
  Q 145.65 136.52 146.06 135.85
  C 147.35 133.77 146.01 132.33 145.99 130.62
  Q 145.94 125.00 146.28 119.45
  A 1.23 1.22 -64.9 0 0 145.96 118.55
  Q 144.21 116.66 141.27 117.49
  Q 138.39 117.56 136.80 118.03
  Q 127.47 120.80 107.51 127.38
  Q 107.01 127.55 107.07 128.08
  Q 107.09 128.35 107.35 128.54
  Q 107.65 128.76 108.21 128.64
  C 118.95 126.35 129.54 122.21 140.45 118.86
  Z
  M 70.18 176.31
  Q 69.30 190.17 73.10 203.45
  Q 74.33 207.77 74.56 211.17
  Q 75.45 224.72 75.46 238.31
  C 75.46 255.24 75.01 270.37 81.53 286.72
  C 85.01 295.47 87.96 303.47 92.72 312.29
  Q 92.96 312.73 93.25 312.79
  Q 93.63 312.85 93.48 312.50
  Q 89.74 303.58 86.61 294.42
  C 84.96 289.59 84.27 283.43 83.55 279.83
  Q 81.98 271.91 80.60 263.96
  C 79.38 256.87 78.88 249.40 78.07 242.03
  Q 77.20 234.18 76.88 225.55
  C 76.24 208.44 73.72 192.20 70.84 176.27
  Q 70.35 173.55 70.18 176.31
  Z
  M 70.53 204.13
  C 70.21 218.91 67.33 233.32 66.39 247.99
  Q 66.34 248.76 66.75 249.19
  Q 67.16 249.62 67.25 249.03
  Q 68.99 237.15 70.42 225.23
  C 71.22 218.59 70.53 211.30 71.09 204.22
  Q 71.09 204.11 70.99 204.08
  Q 70.86 204.04 70.73 203.99
  Q 70.54 203.93 70.53 204.13
  Z
  M 83.25 253.52
  C 84.67 263.91 87.54 274.00 91.05 283.79
  Q 91.43 284.85 91.42 283.73
  Q 91.40 281.79 91.05 280.49
  Q 87.49 267.03 84.07 253.53
  L 81.14 239.59
  A 0.76 0.75 -48.3 0 0 79.65 239.68
  C 79.60 240.25 80.40 241.71 80.53 242.56
  Q 81.40 248.17 83.25 253.52
  Z
  M 71.02 303.36
  C 71.52 306.21 71.59 309.89 71.84 311.99
  Q 72.88 320.79 74.08 329.57
  Q 74.17 330.25 74.77 330.53
  A 0.60 0.60 0.0 0 0 75.62 329.95
  Q 74.25 311.79 71.13 293.61
  C 70.92 292.36 71.33 290.40 70.58 289.18
  A 0.57 0.56 29.5 0 0 69.53 289.47
  Q 69.52 293.61 69.24 297.48
  Q 67.39 323.48 65.64 349.50
  Q 65.62 349.77 65.86 349.65
  C 65.96 349.60 66.42 343.26 66.57 342.36
  C 68.71 329.45 69.81 316.46 70.51 303.39
  A 0.26 0.26 0.0 0 1 71.02 303.36
  Z"
/>
<path fill="#fefefe" d="
  M 224.61 91.74
  L 222.31 92.98
  C 213.21 75.29 207.59 62.10 203.46 43.50
  C 203.24 42.53 203.37 40.58 202.53 39.43
  Q 202.02 38.73 201.88 39.59
  Q 201.43 42.57 201.90 44.81
  Q 206.37 66.51 217.29 86.77
  Q 217.22 87.13 216.54 87.51
  Q 216.09 87.76 216.31 88.23
  Q 218.02 91.96 219.32 95.83
  C 220.24 98.57 219.29 101.11 219.42 104.00
  C 220.27 123.14 221.64 142.87 219.98 161.97
  Q 217.28 192.93 212.70 225.49
  Q 212.17 229.26 213.72 232.70
  Q 213.92 233.15 213.49 233.38
  C 203.90 238.48 188.51 240.14 179.82 232.06
  C 177.51 229.92 175.94 226.39 174.40 223.44
  C 170.22 215.42 169.65 204.25 170.08 195.37
  A 1.64 1.60 -60.3 0 0 169.84 194.45
  Q 168.97 193.02 169.54 191.58
  Q 169.73 191.09 169.60 190.59
  Q 167.42 182.35 164.89 174.17
  C 164.17 171.86 164.91 170.19 166.81 168.97
  C 168.78 167.71 172.08 168.67 174.02 169.44
  Q 183.56 173.19 193.76 176.34
  A 1.89 1.88 21.8 0 0 196.01 175.38
  C 196.94 173.51 195.27 172.00 193.59 171.32
  C 183.86 167.38 176.91 163.31 167.21 156.42
  Q 158.51 150.24 149.25 145.10
  Q 150.62 122.75 148.55 100.13
  Q 148.50 99.67 148.94 99.82
  C 158.98 103.07 162.57 90.42 162.63 82.74
  Q 162.75 68.77 162.74 46.75
  Q 162.74 44.59 162.43 43.01
  Q 162.32 42.44 161.75 42.53
  Q 160.74 42.69 160.55 43.97
  L 160.47 44.94
  Q 160.42 45.59 159.85 45.28
  L 158.63 44.62
  Q 158.33 44.46 158.33 44.80
  Q 158.53 65.74 158.61 86.69
  Q 158.62 89.02 156.27 93.74
  Q 155.91 94.47 156.59 94.02
  Q 157.47 93.45 157.60 92.42
  Q 157.73 91.40 159.97 91.12
  Q 156.14 99.35 150.19 98.46
  A 2.60 2.59 3.3 0 1 147.98 95.98
  C 147.33 78.10 147.24 60.36 147.17 42.45
  Q 147.17 42.00 147.62 42.00
  Q 165.69 42.25 183.28 37.96
  Q 183.72 37.85 183.74 38.30
  C 183.89 40.89 183.67 44.13 186.17 44.76
  A 1.16 1.14 -54.1 0 0 187.07 44.61
  C 189.78 42.92 188.55 40.02 188.21 37.65
  Q 188.14 37.11 188.67 36.98
  Q 200.73 34.15 212.29 29.75
  Q 214.45 28.93 218.03 29.92
  Q 218.49 30.05 218.62 30.50
  Q 219.63 33.88 220.27 37.24
  C 223.84 55.92 225.49 74.65 227.75 93.48
  A 0.30 0.29 -62.9 0 1 227.20 93.66
  C 218.52 77.83 210.39 60.41 207.44 42.97
  Q 207.36 42.48 206.86 42.49
  Q 206.71 42.49 206.56 42.57
  Q 206.14 42.78 206.19 43.25
  C 208.04 60.11 216.53 77.02 224.61 91.74
  Z
  M 210.99 53.69
  C 214.26 64.57 219.23 76.41 224.82 85.88
  A 0.27 0.27 0.0 0 0 225.31 85.69
  C 224.28 80.14 222.59 74.25 221.86 69.20
  Q 220.27 58.15 218.72 47.08
  C 218.15 42.98 217.59 36.73 216.39 31.60
  A 1.48 1.47 76.7 0 0 214.62 30.50
  L 210.19 31.55
  Q 209.57 31.70 209.61 32.33
  C 209.96 39.15 209.07 47.27 210.99 53.69
  Z
  M 207.20 41.59
  L 207.00 42.00
  A 0.12 0.12 0.0 0 0 207.19 42.14
  Q 207.69 41.70 207.47 41.11
  Q 207.35 40.78 206.86 40.49
  Q 205.31 39.56 204.02 38.28
  A 0.12 0.11 43.4 0 0 203.85 38.28
  Q 203.74 38.38 203.63 38.49
  A 0.23 0.22 40.6 0 0 203.66 38.84
  L 207.08 41.17
  Q 207.32 41.33 207.20 41.59
  Z
  M 166.64 96.04
  C 171.17 96.13 175.76 92.91 180.07 89.82
  Q 184.34 86.75 181.55 82.74
  A 1.20 1.19 36.4 0 1 181.39 81.73
  C 182.44 78.21 184.35 75.37 184.87 71.73
  Q 185.74 65.51 187.52 59.51
  Q 187.77 58.65 186.89 57.50
  L 189.07 51.95
  A 0.26 0.26 0.0 0 0 188.59 51.73
  Q 180.42 66.93 173.25 81.71
  Q 167.93 92.67 166.64 96.04
  Z
  M 190.56 128.95
  C 176.62 129.92 164.49 128.28 151.37 122.38
  Q 150.87 122.16 150.87 122.71
  L 151.02 141.81
  A 0.67 0.67 0.0 0 0 151.66 142.48
  Q 153.47 142.58 155.27 142.10
  Q 168.97 138.43 181.42 131.65
  Q 184.18 130.14 190.60 129.46
  Q 190.72 129.45 190.74 129.34
  Q 190.76 129.23 190.72 129.07
  Q 190.69 128.94 190.56 128.95
  Z"
/>
<path fill="#d0d2d2" d="
  M 224.82 85.88
  C 219.23 76.41 214.26 64.57 210.99 53.69
  C 209.07 47.27 209.96 39.15 209.61 32.33
  Q 209.57 31.70 210.19 31.55
  L 214.62 30.50
  A 1.48 1.47 76.7 0 1 216.39 31.60
  C 217.59 36.73 218.15 42.98 218.72 47.08
  Q 220.27 58.15 221.86 69.20
  C 222.59 74.25 224.28 80.14 225.31 85.69
  A 0.27 0.27 0.0 0 1 224.82 85.88
  Z"
/>
<ellipse fill="#d0d2d2" cx="0.00" cy="0.00" transform="translate(150.00,32.50) rotate(79.6)" rx="1.19" ry="1.03"/>
<path fill="#fefefe" d="
  M 176.36 36.93
  Q 164.73 39.38 153.78 39.61
  L 153.29 39.45
  A 0.43 0.43 0.0 0 1 153.32 38.63
  C 156.82 37.78 160.36 38.31 163.56 37.89
  C 166.25 37.54 168.22 37.23 171.45 36.46
  Q 174.21 35.81 176.36 36.93
  Z"
/>
<path fill="#d0d2d2" d="
  M 207.08 41.17
  L 203.66 38.84
  A 0.23 0.22 40.6 0 1 203.63 38.49
  Q 203.74 38.38 203.85 38.28
  A 0.12 0.11 43.4 0 1 204.02 38.28
  Q 205.31 39.56 206.86 40.49
  Q 207.35 40.78 207.47 41.11
  Q 207.69 41.70 207.19 42.14
  A 0.12 0.12 0.0 0 1 207.00 42.00
  L 207.20 41.59
  Q 207.32 41.33 207.08 41.17
  Z"
/>
<path fill="#000000" d="
  M 222.31 92.98
  L 223.18 96.04
  A 0.58 0.58 0.0 0 1 222.10 96.45
  L 217.29 86.77
  Q 206.37 66.51 201.90 44.81
  Q 201.43 42.57 201.88 39.59
  Q 202.02 38.73 202.53 39.43
  C 203.37 40.58 203.24 42.53 203.46 43.50
  C 207.59 62.10 213.21 75.29 222.31 92.98
  Z"
/>
<path fill="#000000" d="
  M 86.84 61.60
  Q 86.18 61.53 86.16 60.97
  Q 89.98 52.80 90.91 43.87
  Q 90.99 43.18 91.58 43.53
  L 91.85 43.69
  Q 92.23 43.92 92.23 44.36
  Q 92.19 53.82 86.84 61.60
  Z"
/>
<path fill="#d0d2d2" d="
  M 160.55 43.97
  Q 161.42 68.24 159.97 91.12
  Q 157.73 91.40 157.60 92.42
  Q 157.47 93.45 156.59 94.02
  Q 155.91 94.47 156.27 93.74
  Q 158.62 89.02 158.61 86.69
  Q 158.53 65.74 158.33 44.80
  Q 158.33 44.46 158.63 44.62
  L 159.85 45.28
  Q 160.42 45.59 160.47 44.94
  L 160.55 43.97
  Z"
/>
<path fill="#000000" d="
  M 186.89 57.50
  L 185.60 60.27
  L 168.87 92.81
  L 166.64 96.04
  Q 167.93 92.67 173.25 81.71
  Q 180.42 66.93 188.59 51.73
  A 0.26 0.26 0.0 0 1 189.07 51.95
  L 186.89 57.50
  Z"
/>
<path fill="#000000" d="
  M 132.21 76.32
  Q 132.31 76.61 132.26 76.77
  Q 132.15 77.15 131.87 76.88
  Q 130.80 75.88 130.40 74.63
  Q 125.27 62.87 118.54 52.41
  Q 118.33 52.08 118.71 51.98
  Q 119.01 51.90 119.35 52.05
  Q 119.59 52.16 119.79 52.44
  Q 127.85 63.39 132.21 76.32
  Z"
/>
<path fill="#d0d2d2" d="
  M 186.89 57.50
  Q 187.77 58.65 187.52 59.51
  Q 185.74 65.51 184.87 71.73
  C 184.35 75.37 182.44 78.21 181.39 81.73
  A 1.20 1.19 36.4 0 0 181.55 82.74
  Q 184.34 86.75 180.07 89.82
  C 175.76 92.91 171.17 96.13 166.64 96.04
  L 168.87 92.81
  Q 168.50 93.07 169.02 93.68
  A 0.58 0.58 0.0 0 0 169.97 93.57
  L 186.08 61.95
  Q 186.34 61.43 186.03 60.94
  L 185.60 60.27
  L 186.89 57.50
  Z"
/>
<path fill="#d0d2d2" d="
  M 130.40 74.63
  Q 130.80 75.88 131.87 76.88
  Q 132.15 77.15 132.26 76.77
  Q 132.31 76.61 132.21 76.32
  Q 132.66 76.25 133.05 75.84
  A 0.80 0.79 -33.6 0 0 133.22 75.02
  Q 130.01 66.31 125.08 58.44
  Q 124.60 57.67 125.31 58.22
  C 135.49 66.12 139.89 84.90 142.10 96.98
  Q 142.51 99.21 142.15 101.05
  A 0.54 0.54 0.0 0 1 141.13 101.19
  Q 136.98 92.80 134.03 84.20
  C 133.17 81.69 132.67 80.21 130.38 78.40
  Q 127.90 76.45 130.40 74.63
  Z"
/>
<path fill="#fefefe" d="
  M 185.60 60.27
  L 186.03 60.94
  Q 186.34 61.43 186.08 61.95
  L 169.97 93.57
  A 0.58 0.58 0.0 0 1 169.02 93.68
  Q 168.50 93.07 168.87 92.81
  L 185.60 60.27
  Z"
/>
<path fill="#d0d2d2" d="
  M 86.16 60.97
  Q 86.18 61.53 86.84 61.60
  Q 86.01 62.08 86.95 62.81
  A 1.25 1.24 28.5 0 1 87.37 64.20
  Q 81.90 80.03 75.09 95.31
  A 0.60 0.60 0.0 0 1 73.94 94.98
  Q 74.24 92.78 75.04 90.65
  C 78.80 80.78 81.84 70.62 86.16 60.97
  Z"
/>
<path fill="#d0d2d2" d="
  M 217.29 86.77
  L 222.10 96.45
  A 0.58 0.58 0.0 0 0 223.18 96.04
  L 222.31 92.98
  L 224.61 91.74
  L 227.42 97.70
  Q 225.14 102.23 223.47 102.66
  Q 222.98 102.79 223.05 103.28
  C 223.20 104.55 223.82 106.13 223.90 107.15
  Q 225.50 126.28 225.91 145.47
  Q 225.97 148.10 226.75 154.98
  Q 227.48 161.38 226.61 167.80
  C 225.61 175.23 226.25 182.37 226.25 189.72
  C 226.25 191.21 226.87 192.86 226.81 194.76
  Q 226.45 206.04 224.91 214.99
  C 223.93 220.71 219.58 225.05 214.53 230.47
  A 1.12 1.11 65.6 0 0 214.23 231.28
  Q 214.26 232.20 215.08 232.66
  A 1.36 1.34 -84.2 0 1 215.69 233.42
  C 216.90 237.26 220.68 246.41 219.88 249.53
  Q 214.41 271.09 205.37 290.35
  Q 204.46 292.30 202.36 293.83
  A 0.41 0.40 74.8 0 1 201.72 293.46
  Q 202.10 289.52 200.27 286.02
  A 1.23 1.20 -47.9 0 1 200.23 284.99
  Q 203.37 277.48 205.77 269.80
  C 206.16 268.52 205.78 267.76 205.20 266.66
  Q 205.85 264.67 204.73 264.37
  L 212.57 240.97
  Q 212.72 240.52 213.16 240.36
  Q 214.77 239.78 215.86 238.52
  Q 216.33 237.98 215.64 237.78
  Q 215.01 237.60 214.83 238.16
  Q 214.76 237.13 214.49 237.24
  Q 215.01 236.68 215.01 236.41
  A 0.41 0.37 80.8 0 0 214.52 236.02
  Q 209.29 237.66 207.44 242.70
  Q 207.24 243.24 206.77 243.56
  Q 203.51 245.81 198.74 245.48
  Q 185.36 244.56 176.65 235.52
  C 174.15 232.93 174.23 230.54 174.36 227.16
  Q 174.38 226.65 174.14 226.20
  C 168.46 215.86 168.07 203.55 168.72 192.33
  A 1.73 1.68 33.4 0 0 168.52 191.42
  C 163.66 182.47 158.87 173.35 153.56 164.67
  Q 150.32 159.34 150.65 154.02
  Q 150.88 150.30 150.08 149.14
  Q 149.74 147.56 148.64 147.54
  L 149.25 145.10
  Q 158.51 150.24 167.21 156.42
  C 176.91 163.31 183.86 167.38 193.59 171.32
  C 195.27 172.00 196.94 173.51 196.01 175.38
  A 1.89 1.88 21.8 0 1 193.76 176.34
  Q 183.56 173.19 174.02 169.44
  C 172.08 168.67 168.78 167.71 166.81 168.97
  C 164.91 170.19 164.17 171.86 164.89 174.17
  Q 167.42 182.35 169.60 190.59
  Q 169.73 191.09 169.54 191.58
  Q 168.97 193.02 169.84 194.45
  A 1.64 1.60 -60.3 0 1 170.08 195.37
  C 169.65 204.25 170.22 215.42 174.40 223.44
  C 175.94 226.39 177.51 229.92 179.82 232.06
  C 188.51 240.14 203.90 238.48 213.49 233.38
  Q 213.92 233.15 213.72 232.70
  Q 212.17 229.26 212.70 225.49
  Q 217.28 192.93 219.98 161.97
  C 221.64 142.87 220.27 123.14 219.42 104.00
  C 219.29 101.11 220.24 98.57 219.32 95.83
  Q 218.02 91.96 216.31 88.23
  Q 216.09 87.76 216.54 87.51
  Q 217.22 87.13 217.29 86.77
  Z"
/>
<path fill="#fefefe" d="
  M 227.42 97.70
  C 229.42 119.82 228.56 135.29 228.49 154.36
  C 228.44 165.19 226.90 176.56 227.30 187.89
  Q 227.32 188.33 227.21 189.11
  Q 227.08 190.05 227.53 190.40
  Q 228.06 190.81 228.11 190.14
  Q 228.71 182.53 228.79 175.00
  Q 228.80 173.63 229.29 173.18
  Q 229.45 173.29 229.72 173.24
  C 229.98 193.00 231.67 212.61 233.71 232.25
  C 234.86 243.25 234.16 257.57 235.39 269.91
  Q 240.50 321.04 241.12 338.82
  Q 241.76 357.14 242.38 375.47
  Q 242.39 375.95 242.00 376.22
  Q 233.02 382.30 221.62 383.56
  L 239.62 376.55
  A 0.78 0.78 0.0 0 0 240.11 375.73
  Q 237.65 355.95 236.79 336.06
  C 235.98 317.32 234.61 298.93 234.54 280.27
  C 234.53 279.33 233.94 278.07 233.99 277.23
  Q 234.51 268.70 231.34 260.81
  Q 232.61 254.53 232.41 248.45
  Q 232.40 248.25 232.30 248.10
  Q 232.18 247.93 232.04 247.81
  Q 231.59 247.39 231.68 248.00
  Q 231.94 249.75 231.67 250.93
  Q 229.25 261.58 228.84 272.57
  Q 226.55 278.74 228.32 282.12
  Q 226.54 290.87 225.99 299.00
  Q 225.06 312.92 225.68 328.99
  Q 225.71 329.60 226.00 329.92
  Q 226.42 330.38 226.99 330.24
  Q 227.48 330.12 227.43 329.61
  C 226.94 324.43 227.53 318.58 227.47 314.17
  Q 227.23 297.32 229.92 280.70
  L 230.99 281.54
  Q 231.37 281.84 231.24 282.30
  Q 229.33 289.15 229.41 293.57
  C 229.59 302.26 228.23 309.97 230.20 318.66
  C 232.21 327.52 231.13 336.60 231.47 344.90
  Q 231.79 352.76 232.05 360.65
  Q 232.07 361.16 231.61 361.38
  Q 224.25 364.97 219.01 371.22
  C 213.63 377.63 201.41 375.94 195.18 373.55
  Q 188.44 370.96 184.40 370.33
  Q 180.13 347.83 178.08 327.19
  Q 177.74 323.85 178.26 319.31
  A 1.93 1.90 -54.0 0 0 178.12 318.37
  C 174.90 310.83 174.24 302.87 173.47 294.81
  Q 171.04 269.38 168.93 243.92
  Q 168.61 240.08 167.30 236.25
  C 163.00 223.68 159.80 211.92 157.68 198.14
  C 155.73 185.49 154.73 172.99 149.96 160.52
  Q 149.49 159.29 149.80 155.77
  L 150.08 149.14
  Q 150.88 150.30 150.65 154.02
  Q 150.32 159.34 153.56 164.67
  C 158.87 173.35 163.66 182.47 168.52 191.42
  A 1.73 1.68 33.4 0 1 168.72 192.33
  C 168.07 203.55 168.46 215.86 174.14 226.20
  Q 174.38 226.65 174.36 227.16
  C 174.23 230.54 174.15 232.93 176.65 235.52
  Q 185.36 244.56 198.74 245.48
  Q 203.51 245.81 206.77 243.56
  Q 207.24 243.24 207.44 242.70
  Q 209.29 237.66 214.52 236.02
  A 0.41 0.37 80.8 0 1 215.01 236.41
  Q 215.01 236.68 214.49 237.24
  Q 208.98 239.28 208.49 245.22
  Q 207.94 245.43 207.29 245.33
  Q 206.70 245.24 206.52 245.81
  L 204.39 252.70
  Q 204.22 253.23 204.74 253.01
  Q 205.30 252.77 205.83 252.79
  C 200.47 268.05 191.59 280.29 185.35 292.83
  Q 185.13 293.28 185.62 293.17
  Q 185.88 293.12 186.08 292.82
  C 193.38 281.73 201.20 269.65 205.77 257.49
  Q 208.78 249.49 210.81 241.13
  Q 210.93 240.63 211.35 240.36
  L 214.83 238.16
  Q 215.01 237.60 215.64 237.78
  Q 216.33 237.98 215.86 238.52
  Q 214.77 239.78 213.16 240.36
  Q 212.72 240.52 212.57 240.97
  L 204.73 264.37
  Q 201.06 278.26 193.91 290.76
  Q 193.42 291.62 194.33 291.22
  C 199.03 289.16 204.31 271.18 205.20 266.66
  C 205.78 267.76 206.16 268.52 205.77 269.80
  Q 203.37 277.48 200.23 284.99
  A 1.23 1.20 -47.9 0 0 200.27 286.02
  Q 202.10 289.52 201.72 293.46
  A 0.41 0.40 74.8 0 0 202.36 293.83
  Q 204.46 292.30 205.37 290.35
  Q 214.41 271.09 219.88 249.53
  C 220.68 246.41 216.90 237.26 215.69 233.42
  A 1.36 1.34 -84.2 0 0 215.08 232.66
  Q 214.26 232.20 214.23 231.28
  A 1.12 1.11 65.6 0 1 214.53 230.47
  C 219.58 225.05 223.93 220.71 224.91 214.99
  Q 226.45 206.04 226.81 194.76
  C 226.87 192.86 226.25 191.21 226.25 189.72
  C 226.25 182.37 225.61 175.23 226.61 167.80
  Q 227.48 161.38 226.75 154.98
  Q 225.97 148.10 225.91 145.47
  Q 225.50 126.28 223.90 107.15
  C 223.82 106.13 223.20 104.55 223.05 103.28
  Q 222.98 102.79 223.47 102.66
  Q 225.14 102.23 227.42 97.70
  Z
  M 227.50 248.05
  Q 227.08 254.75 227.23 261.07
  Q 227.36 266.42 228.67 261.23
  Q 230.39 254.46 228.43 245.51
  Q 230.15 234.34 230.15 224.82
  Q 230.15 219.27 229.36 224.76
  Q 227.89 234.97 227.50 248.05
  Z
  M 173.80 276.33
  C 174.16 271.65 173.69 266.74 173.89 262.56
  Q 174.40 251.52 173.58 240.49
  Q 173.51 239.56 173.14 239.27
  Q 172.58 238.85 172.57 239.54
  Q 172.36 253.83 172.26 268.10
  C 172.24 270.91 172.68 273.73 173.14 276.36
  A 0.33 0.33 0.0 0 0 173.80 276.33
  Z
  M 201.44 269.94
  Q 199.68 273.12 198.74 276.64
  Q 198.64 277.05 199.03 276.91
  Q 199.28 276.81 199.43 276.43
  Q 201.10 271.99 201.94 269.39
  A 0.20 0.20 0.0 0 0 201.63 269.16
  Q 201.12 269.54 201.44 269.94
  Z
  M 174.47 286.55
  Q 173.55 292.00 175.20 299.84
  Q 175.27 300.19 175.52 299.93
  Q 175.83 299.59 175.80 299.23
  Q 174.98 290.96 175.31 286.66
  Q 176.04 277.25 174.47 286.55
  Z
  M 225.33 289.34
  Q 225.69 288.58 225.18 288.53
  Q 224.47 288.47 224.35 289.17
  L 218.34 323.97
  A 0.84 0.82 -10.6 0 0 219.60 324.81
  Q 219.74 324.73 219.86 324.17
  Q 223.39 307.25 225.47 290.08
  Q 225.48 289.99 225.45 289.92
  Q 225.40 289.79 225.33 289.66
  Q 225.25 289.50 225.33 289.34
  Z
  M 182.47 318.96
  L 181.21 319.06
  A 0.15 0.15 0.0 0 0 181.07 319.22
  L 182.72 339.26
  A 21.07 0.78 85.3 0 0 185.22 360.19
  L 185.22 360.19
  A 21.07 0.78 85.3 0 0 184.27 339.13
  L 182.63 319.10
  A 0.15 0.15 0.0 0 0 182.47 318.96
  Z
  M 219.44 325.87
  L 211.30 354.93
  Q 211.24 355.15 211.44 355.04
  Q 211.64 354.93 211.75 354.70
  Q 217.03 343.61 218.83 330.77
  C 219.00 329.61 219.59 327.61 219.48 325.88
  A 0.02 0.02 0.0 0 0 219.44 325.87
  Z"
/>
<path fill="#000000" d="
  M 141.27 117.49
  Q 141.27 118.44 140.45 118.86
  C 129.54 122.21 118.95 126.35 108.21 128.64
  Q 107.65 128.76 107.35 128.54
  Q 107.09 128.35 107.07 128.08
  Q 107.01 127.55 107.51 127.38
  Q 127.47 120.80 136.80 118.03
  Q 138.39 117.56 141.27 117.49
  Z"
/>
<path fill="#d0d2d2" d="
  M 86.97 241.03
  L 86.49 238.54
  Q 87.73 238.25 88.45 239.04
  Q 88.77 239.39 89.21 239.57
  C 98.93 243.37 105.76 241.03 107.67 230.45
  C 108.46 226.05 108.96 221.94 110.60 217.66
  C 114.29 208.06 117.01 199.18 118.78 188.53
  C 122.31 167.22 123.72 146.65 135.27 127.71
  Q 137.86 123.47 140.45 118.86
  Q 141.27 118.44 141.27 117.49
  Q 144.21 116.66 145.96 118.55
  A 1.23 1.22 -64.9 0 1 146.28 119.45
  Q 145.94 125.00 145.99 130.62
  C 146.01 132.33 147.35 133.77 146.06 135.85
  Q 145.65 136.52 144.30 137.54
  C 131.97 146.86 134.63 163.99 131.97 177.64
  C 130.81 183.58 130.13 189.66 128.58 195.36
  Q 121.81 220.27 115.10 245.21
  C 113.11 252.58 107.18 274.20 94.86 265.80
  Q 94.45 265.52 94.32 265.03
  Q 91.30 253.37 88.28 241.74
  Q 88.02 240.74 86.97 241.03
  Z"
/>
<path fill="#d0d2d2" d="
  M 151.37 122.38
  C 164.49 128.28 176.62 129.92 190.56 128.95
  Q 190.69 128.94 190.72 129.07
  Q 190.76 129.23 190.74 129.34
  Q 190.72 129.45 190.60 129.46
  Q 184.18 130.14 181.42 131.65
  Q 168.97 138.43 155.27 142.10
  Q 153.47 142.58 151.66 142.48
  A 0.67 0.67 0.0 0 1 151.02 141.81
  L 150.87 122.71
  Q 150.87 122.16 151.37 122.38
  Z"
/>
<path fill="#fefefe" d="
  M 145.02 156.28
  Q 143.38 156.46 142.64 154.97
  L 147.90 137.41
  A 0.38 0.38 0.0 0 1 148.64 137.56
  Q 147.62 146.96 145.02 156.28
  Z"
/>
<path fill="#999999" d="
  M 148.64 147.54
  Q 149.74 147.56 150.08 149.14
  L 149.80 155.77
  L 148.54 155.83
  Q 148.93 151.91 147.70 150.97
  L 148.64 147.54
  Z"
/>
<path fill="#fefefe" d="
  M 147.70 150.97
  Q 148.93 151.91 148.54 155.83
  Q 148.23 162.35 146.83 169.02
  C 142.86 188.00 138.76 206.70 133.97 225.49
  C 132.06 232.97 128.82 240.30 126.64 247.94
  Q 126.45 248.03 126.20 248.01
  Q 125.72 247.99 125.75 247.50
  L 125.83 246.54
  C 127.00 241.73 129.29 237.24 130.36 232.72
  C 132.01 225.81 133.91 218.98 135.19 212.02
  C 138.97 191.58 143.59 173.34 147.70 150.97
  Z"
/>
<path fill="#d0d2d2" d="
  M 142.64 154.97
  Q 143.38 156.46 145.02 156.28
  C 143.11 168.19 139.67 181.97 137.75 191.59
  Q 133.76 211.57 129.34 231.45
  C 128.26 236.32 126.38 241.35 125.08 246.40
  L 124.07 257.43
  A 0.40 0.40 0.0 0 0 124.86 257.51
  L 125.62 250.69
  Q 125.66 250.26 126.10 250.25
  L 126.49 250.25
  C 126.32 259.53 126.47 268.47 124.10 275.11
  C 122.59 279.34 122.95 283.70 122.49 287.50
  Q 119.42 313.02 116.02 338.50
  Q 115.55 341.99 114.66 345.58
  Q 113.07 343.56 111.05 343.72
  Q 110.52 343.75 110.42 344.28
  Q 109.95 346.71 110.52 349.24
  Q 109.75 349.55 110.08 350.10
  Q 109.64 348.90 108.41 348.48
  Q 112.89 323.34 116.67 298.08
  C 117.58 291.98 117.86 287.73 121.70 282.63
  A 0.53 0.52 4.9 0 0 121.04 281.85
  Q 121.00 281.87 120.86 282.24
  Q 119.92 281.56 119.19 282.69
  Q 117.23 285.71 115.24 288.39
  Q 114.72 288.79 114.41 288.23
  Q 113.98 285.27 113.77 282.04
  Q 113.61 279.58 114.55 277.06
  Q 118.52 266.42 121.44 255.48
  L 122.14 255.50
  Q 122.59 255.51 122.66 255.06
  L 123.91 247.03
  C 123.98 245.74 124.48 244.41 124.66 243.31
  Q 131.14 202.75 140.58 162.77
  Q 141.50 158.85 142.64 154.97
  Z"
/>
<path fill="#d0d2d2" d="
  M 149.99 165.96
  Q 149.75 166.04 149.51 165.96
  Q 149.10 165.40 148.99 164.79
  A 0.41 0.41 0.0 0 1 149.73 164.48
  Q 150.13 165.06 149.99 165.96
  Z"
/>
<path fill="#999999" d="
  M 229.72 173.24
  Q 229.45 173.29 229.29 173.18
  L 228.76 171.05
  Q 228.62 170.49 229.20 170.50
  Q 229.34 170.50 229.48 170.50
  Q 229.88 170.50 229.78 170.88
  Q 229.48 172.14 229.72 173.24
  Z"
/>
<path fill="#d0d2d2" d="
  M 70.18 176.31
  Q 70.35 173.55 70.84 176.27
  C 73.72 192.20 76.24 208.44 76.88 225.55
  Q 77.20 234.18 78.07 242.03
  C 78.88 249.40 79.38 256.87 80.60 263.96
  Q 81.98 271.91 83.55 279.83
  C 84.27 283.43 84.96 289.59 86.61 294.42
  Q 89.74 303.58 93.48 312.50
  Q 93.63 312.85 93.25 312.79
  Q 92.96 312.73 92.72 312.29
  C 87.96 303.47 85.01 295.47 81.53 286.72
  C 75.01 270.37 75.46 255.24 75.46 238.31
  Q 75.45 224.72 74.56 211.17
  Q 74.33 207.77 73.10 203.45
  Q 69.30 190.17 70.18 176.31
  Z"
/>
<path fill="#000000" d="
  M 66.39 247.99
  C 67.33 233.32 70.21 218.91 70.53 204.13
  Q 70.54 203.93 70.73 203.99
  Q 70.86 204.04 70.99 204.08
  Q 71.09 204.11 71.09 204.22
  C 70.53 211.30 71.22 218.59 70.42 225.23
  Q 68.99 237.15 67.25 249.03
  Q 67.16 249.62 66.75 249.19
  Q 66.34 248.76 66.39 247.99
  Z"
/>
<path fill="#000000" d="
  M 228.43 245.51
  Q 228.31 248.57 227.50 248.05
  Q 227.89 234.97 229.36 224.76
  Q 230.15 219.27 230.15 224.82
  Q 230.15 234.34 228.43 245.51
  Z"
/>
<path fill="#000000" d="
  M 86.49 238.54
  L 86.97 241.03
  C 89.76 251.88 92.42 262.51 94.64 273.50
  Q 94.71 273.82 94.41 273.96
  Q 94.17 274.07 94.07 273.73
  Q 88.11 253.12 83.43 232.13
  A 0.42 0.41 29.5 0 1 84.23 231.91
  L 86.49 238.54
  Z"
/>
<path fill="#000000" d="
  M 214.49 237.24
  Q 214.76 237.13 214.83 238.16
  L 211.35 240.36
  Q 210.93 240.63 210.81 241.13
  Q 208.78 249.49 205.77 257.49
  C 201.20 269.65 193.38 281.73 186.08 292.82
  Q 185.88 293.12 185.62 293.17
  Q 185.13 293.28 185.35 292.83
  C 191.59 280.29 200.47 268.05 205.83 252.79
  L 208.49 245.22
  Q 208.98 239.28 214.49 237.24
  Z"
/>
<path fill="#000000" d="
  M 173.80 276.33
  A 0.33 0.33 0.0 0 1 173.14 276.36
  C 172.68 273.73 172.24 270.91 172.26 268.10
  Q 172.36 253.83 172.57 239.54
  Q 172.58 238.85 173.14 239.27
  Q 173.51 239.56 173.58 240.49
  Q 174.40 251.52 173.89 262.56
  C 173.69 266.74 174.16 271.65 173.80 276.33
  Z"
/>
<path fill="#d0d2d2" d="
  M 84.07 253.53
  L 83.25 253.52
  Q 81.40 248.17 80.53 242.56
  C 80.40 241.71 79.60 240.25 79.65 239.68
  A 0.76 0.75 -48.3 0 1 81.14 239.59
  L 84.07 253.53
  Z"
/>
<path fill="#d0d2d2" d="
  M 208.49 245.22
  L 205.83 252.79
  Q 205.30 252.77 204.74 253.01
  Q 204.22 253.23 204.39 252.70
  L 206.52 245.81
  Q 206.70 245.24 207.29 245.33
  Q 207.94 245.43 208.49 245.22
  Z"
/>
<path fill="#d0d2d2" d="
  M 228.43 245.51
  Q 230.39 254.46 228.67 261.23
  Q 227.36 266.42 227.23 261.07
  Q 227.08 254.75 227.50 248.05
  Q 228.31 248.57 228.43 245.51
  Z"
/>
<path fill="#999999" d="
  M 125.08 246.40
  Q 125.59 246.58 125.83 246.54
  L 125.75 247.50
  Q 125.72 247.99 126.20 248.01
  Q 126.45 248.03 126.64 247.94
  Q 126.87 249.00 126.49 250.25
  L 126.10 250.25
  Q 125.66 250.26 125.62 250.69
  L 124.86 257.51
  A 0.40 0.40 0.0 0 1 124.07 257.43
  L 125.08 246.40
  Z"
/>
<path fill="#999999" d="
  M 123.91 247.03
  L 122.66 255.06
  Q 122.59 255.51 122.14 255.50
  L 121.44 255.48
  L 122.80 247.25
  Q 123.15 246.89 123.91 247.03
  Z"
/>
<path fill="#000000" d="
  M 231.34 260.81
  Q 230.83 262.10 230.75 266.00
  Q 230.71 268.04 228.84 272.57
  Q 229.25 261.58 231.67 250.93
  Q 231.94 249.75 231.68 248.00
  Q 231.59 247.39 232.04 247.81
  Q 232.18 247.93 232.30 248.10
  Q 232.40 248.25 232.41 248.45
  Q 232.61 254.53 231.34 260.81
  Z"
/>
<path fill="#000000" d="
  M 83.25 253.52
  L 84.07 253.53
  Q 87.49 267.03 91.05 280.49
  Q 91.40 281.79 91.42 283.73
  Q 91.43 284.85 91.05 283.79
  C 87.54 274.00 84.67 263.91 83.25 253.52
  Z"
/>
<path fill="#d0d2d2" d="
  M 231.34 260.81
  Q 234.51 268.70 233.99 277.23
  C 233.94 278.07 234.53 279.33 234.54 280.27
  C 234.61 298.93 235.98 317.32 236.79 336.06
  Q 237.65 355.95 240.11 375.73
  A 0.78 0.78 0.0 0 1 239.62 376.55
  L 221.62 383.56
  Q 214.10 385.92 204.74 385.20
  Q 195.39 384.49 186.24 382.26
  A 0.72 0.72 0.0 0 1 185.69 381.48
  Q 186.18 376.53 184.40 370.33
  Q 188.44 370.96 195.18 373.55
  C 201.41 375.94 213.63 377.63 219.01 371.22
  Q 224.25 364.97 231.61 361.38
  Q 232.07 361.16 232.05 360.65
  Q 231.79 352.76 231.47 344.90
  C 231.13 336.60 232.21 327.52 230.20 318.66
  C 228.23 309.97 229.59 302.26 229.41 293.57
  Q 229.33 289.15 231.24 282.30
  Q 231.37 281.84 230.99 281.54
  L 229.92 280.70
  Q 230.33 279.81 230.23 279.16
  Q 230.13 278.49 229.83 279.10
  L 228.32 282.12
  Q 226.55 278.74 228.84 272.57
  Q 230.71 268.04 230.75 266.00
  Q 230.83 262.10 231.34 260.81
  Z"
/>
<path fill="#000000" d="
  M 204.73 264.37
  Q 205.85 264.67 205.20 266.66
  C 204.31 271.18 199.03 289.16 194.33 291.22
  Q 193.42 291.62 193.91 290.76
  Q 201.06 278.26 204.73 264.37
  Z"
/>
<path fill="#d0d2d2" d="
  M 201.44 269.94
  Q 201.12 269.54 201.63 269.16
  A 0.20 0.20 0.0 0 1 201.94 269.39
  Q 201.10 271.99 199.43 276.43
  Q 199.28 276.81 199.03 276.91
  Q 198.64 277.05 198.74 276.64
  Q 199.68 273.12 201.44 269.94
  Z"
/>
<path fill="#000000" d="
  M 229.92 280.70
  Q 227.23 297.32 227.47 314.17
  C 227.53 318.58 226.94 324.43 227.43 329.61
  Q 227.48 330.12 226.99 330.24
  Q 226.42 330.38 226.00 329.92
  Q 225.71 329.60 225.68 328.99
  Q 225.06 312.92 225.99 299.00
  Q 226.54 290.87 228.32 282.12
  L 229.83 279.10
  Q 230.13 278.49 230.23 279.16
  Q 230.33 279.81 229.92 280.70
  Z"
/>
<path fill="#000000" d="
  M 108.41 348.48
  L 104.17 367.46
  C 102.65 371.62 99.63 377.62 95.33 379.08
  Q 94.89 379.23 94.49 378.99
  Q 93.55 378.45 93.16 377.68
  Q 95.22 378.87 96.62 377.37
  C 102.97 370.61 104.37 362.28 106.00 353.00
  C 108.78 337.11 111.56 321.25 113.76 305.27
  C 115.11 295.47 115.78 289.36 120.86 282.24
  Q 121.00 281.87 121.04 281.85
  A 0.53 0.52 4.9 0 1 121.70 282.63
  C 117.86 287.73 117.58 291.98 116.67 298.08
  Q 112.89 323.34 108.41 348.48
  Z"
/>
<path fill="#fefefe" d="
  M 120.86 282.24
  C 115.78 289.36 115.11 295.47 113.76 305.27
  C 111.56 321.25 108.78 337.11 106.00 353.00
  C 104.37 362.28 102.97 370.61 96.62 377.37
  Q 95.22 378.87 93.16 377.68
  Q 92.93 377.39 92.83 377.09
  Q 92.74 376.81 92.91 376.46
  Q 97.08 367.85 100.68 358.98
  C 101.69 356.49 104.32 354.00 104.95 351.70
  Q 105.82 348.57 105.18 342.87
  Q 109.66 328.70 111.39 313.60
  C 112.41 304.73 114.05 296.86 115.24 288.39
  Q 117.23 285.71 119.19 282.69
  Q 119.92 281.56 120.86 282.24
  Z"
/>
<path fill="#000000" d="
  M 174.47 286.55
  Q 176.04 277.25 175.31 286.66
  Q 174.98 290.96 175.80 299.23
  Q 175.83 299.59 175.52 299.93
  Q 175.27 300.19 175.20 299.84
  Q 173.55 292.00 174.47 286.55
  Z"
/>
<path fill="#000000" d="
  M 225.33 289.66
  Q 225.40 289.79 225.45 289.92
  Q 225.48 289.99 225.47 290.08
  Q 223.39 307.25 219.86 324.17
  Q 219.74 324.73 219.60 324.81
  A 0.84 0.82 -10.6 0 1 218.34 323.97
  L 224.35 289.17
  Q 224.47 288.47 225.18 288.53
  Q 225.69 288.58 225.33 289.34
  Q 225.25 289.50 225.33 289.66
  Z"
/>
<path fill="#000000" d="
  M 114.41 288.23
  Q 114.72 288.79 115.24 288.39
  C 114.05 296.86 112.41 304.73 111.39 313.60
  Q 109.66 328.70 105.18 342.87
  Q 104.28 343.59 103.99 343.49
  Q 103.99 342.92 104.15 342.34
  C 109.23 324.46 110.19 304.92 114.41 288.23
  Z"
/>
<path fill="#000000" d="
  M 70.51 303.39
  C 69.81 316.46 68.71 329.45 66.57 342.36
  C 66.42 343.26 65.96 349.60 65.86 349.65
  Q 65.62 349.77 65.64 349.50
  Q 67.39 323.48 69.24 297.48
  Q 69.52 293.61 69.53 289.47
  A 0.57 0.56 29.5 0 1 70.58 289.18
  C 71.33 290.40 70.92 292.36 71.13 293.61
  Q 74.25 311.79 75.62 329.95
  A 0.60 0.60 0.0 0 1 74.77 330.53
  Q 74.17 330.25 74.08 329.57
  Q 72.88 320.79 71.84 311.99
  C 71.59 309.89 71.52 306.21 71.02 303.36
  A 0.26 0.26 0.0 0 0 70.51 303.39
  Z"
/>
<path fill="#000000" d="
  M 182.47 318.96
  A 0.15 0.15 0.0 0 1 182.63 319.10
  L 184.27 339.13
  A 21.07 0.78 85.3 0 1 185.22 360.19
  L 185.22 360.19
  A 21.07 0.78 85.3 0 1 182.72 339.26
  L 181.07 319.22
  A 0.15 0.15 0.0 0 1 181.21 319.06
  L 182.47 318.96
  Z"
/>
<path fill="#d0d2d2" d="
  M 219.44 325.87
  A 0.02 0.02 0.0 0 1 219.48 325.88
  C 219.59 327.61 219.00 329.61 218.83 330.77
  Q 217.03 343.61 211.75 354.70
  Q 211.64 354.93 211.44 355.04
  Q 211.24 355.15 211.30 354.93
  L 219.44 325.87
  Z"
/>
<path fill="#d0d2d2" d="
  M 105.18 342.87
  Q 105.82 348.57 104.95 351.70
  C 104.32 354.00 101.69 356.49 100.68 358.98
  Q 97.08 367.85 92.91 376.46
  Q 92.74 376.81 92.83 377.09
  Q 92.93 377.39 93.16 377.68
  Q 93.55 378.45 94.49 378.99
  Q 94.89 379.23 95.33 379.08
  C 99.63 377.62 102.65 371.62 104.17 367.46
  Q 105.45 368.66 106.44 368.50
  L 105.11 380.27
  Q 105.02 381.01 105.44 380.40
  C 106.33 379.07 106.78 374.03 107.10 372.32
  Q 108.04 373.10 110.27 372.73
  L 108.72 382.53
  Q 108.64 383.02 108.15 383.10
  C 96.92 385.09 88.81 386.21 78.26 384.03
  Q 78.75 384.04 78.77 383.55
  A 0.44 0.43 6.8 0 0 78.41 383.10
  C 72.23 381.98 63.25 380.07 58.26 376.04
  Q 57.81 375.68 58.14 375.21
  Q 60.29 372.11 57.59 371.23
  L 57.34 363.83
  C 63.16 368.69 72.97 381.80 81.53 374.28
  C 91.81 365.24 99.08 356.42 103.99 343.49
  Q 104.28 343.59 105.18 342.87
  Z"
/>
<path fill="#fefefe" d="
  M 114.66 345.58
  L 110.27 372.73
  Q 108.04 373.10 107.10 372.32
  Q 109.49 361.64 110.59 350.98
  Q 110.67 350.14 110.52 349.24
  Q 109.95 346.71 110.42 344.28
  Q 110.52 343.75 111.05 343.72
  Q 113.07 343.56 114.66 345.58
  Z"
/>
<path fill="#fefefe" d="
  M 108.41 348.48
  Q 109.64 348.90 110.08 350.10
  L 106.44 368.50
  Q 105.45 368.66 104.17 367.46
  L 108.41 348.48
  Z"
/>
<path fill="#000000" d="
  M 110.52 349.24
  Q 110.67 350.14 110.59 350.98
  Q 109.49 361.64 107.10 372.32
  C 106.78 374.03 106.33 379.07 105.44 380.40
  Q 105.02 381.01 105.11 380.27
  L 106.44 368.50
  L 110.08 350.10
  Q 109.75 349.55 110.52 349.24
  Z"
/>
<path fill="#fefefe" d="
  M 57.59 371.23
  Q 60.29 372.11 58.14 375.21
  Q 57.81 375.68 58.26 376.04
  C 63.25 380.07 72.23 381.98 78.41 383.10
  A 0.44 0.43 6.8 0 1 78.77 383.55
  Q 78.75 384.04 78.26 384.03
  Q 66.32 382.59 55.50 376.14
  A 0.46 0.46 0.0 0 1 55.69 375.29
  L 56.82 375.18
  Q 57.49 375.11 57.51 374.43
  L 57.59 371.23
  Z"
/>
<path fill="#d0d2d2" d="
  M 242.77 386.59
  Q 234.17 390.84 225.67 393.32
  C 223.81 393.86 221.87 393.65 219.88 394.58
  Q 219.29 394.86 219.55 394.26
  L 222.43 387.61
  A 1.02 1.01 -82.9 0 1 223.20 387.00
  Q 234.20 385.13 241.34 379.31
  Q 242.63 377.36 245.73 375.52
  A 1.13 1.12 76.2 0 1 247.43 376.55
  C 247.30 378.95 246.85 382.57 245.50 384.68
  Q 244.22 386.67 242.77 386.59
  Z"
/>
<path fill="#fefefe" d="
  M 54.42 376.96
  C 69.05 387.89 91.00 389.10 107.97 384.80
  Q 108.53 384.66 108.46 385.23
  L 107.12 395.78
  Q 107.06 396.27 106.57 396.29
  C 90.80 396.69 76.47 397.95 61.81 390.90
  C 55.14 387.70 51.72 383.54 52.48 376.09
  Q 52.54 375.56 53.03 375.77
  C 53.66 376.04 54.00 376.65 54.42 376.96
  Z"
/>
<path fill="#fefefe" d="
  M 241.34 379.31
  Q 234.20 385.13 223.20 387.00
  A 1.02 1.01 -82.9 0 0 222.43 387.61
  L 219.55 394.26
  Q 219.29 394.86 219.88 394.58
  C 221.87 393.65 223.81 393.86 225.67 393.32
  Q 234.17 390.84 242.77 386.59
  Q 240.16 389.65 235.67 391.42
  C 219.93 397.66 206.75 396.60 190.98 396.31
  Q 190.48 396.30 190.40 395.81
  L 188.78 385.22
  Q 188.70 384.71 189.20 384.84
  Q 208.58 389.79 227.93 384.64
  Q 231.14 383.78 241.34 379.31
  Z"
/>
<path fill="#999999" d="
  M 246.00 386.94
  L 245.99 387.97
  Q 245.99 388.45 245.51 388.50
  Q 245.03 388.55 244.70 388.34
  Q 244.93 386.87 246.00 386.94
  Z"
/>
</svg>
